<svg xmlns="http://www.w3.org/2000/svg" version="1.1" xmlns:xlink="http://www.w3.org/1999/xlink" width="512" height="512" x="0" y="0" viewBox="0 0 24 24" style="enable-background:new 0 0 512 512" xml:space="preserve" class=""><g><path d="M12 6a1 1 0 0 0-1 1v5a1 1 0 0 0 .293.707l3 3a.997.997 0 0 0 1.414 0 1 1 0 0 0 0-1.414L13 11.586V7a1 1 0 0 0-1-1z" fill="#767676" opacity="1" data-original="#000000" class=""></path><path d="M21 11a1 1 0 0 0-1 1c0 4.411-3.589 8-8 8s-8-3.589-8-8 3.589-8 8-8a7.946 7.946 0 0 1 6.217 3H16a1 1 0 1 0 0 2h4a1 1 0 0 0 1-1V4a1 1 0 1 0-2 0v.887A9.934 9.934 0 0 0 12 2C6.486 2 2 6.486 2 12s4.486 10 10 10 10-4.486 10-10a1 1 0 0 0-1-1z" fill="#767676" opacity="1" data-original="#000000" class=""></path></g></svg>