<svg width="2213" height="392" viewBox="0 0 2213 392" fill="none" xmlns="http://www.w3.org/2000/svg">
<path d="M167.156 392C145.159 391.962 123.387 386.854 103.082 376.969C82.7778 367.084 64.3381 352.615 48.8163 334.387C33.2945 316.16 20.9945 294.532 12.6187 270.738C4.24282 246.943 -0.0448885 221.449 0.00035434 195.71C0.0917303 143.727 17.8266 93.9046 49.3034 57.2019C80.7803 20.4993 123.421 -0.076751 167.844 0.000215148C189.841 0.0383416 211.613 5.14578 231.917 15.0309C252.222 24.9161 270.662 39.3853 286.184 57.6125C301.705 75.8398 314.005 97.468 322.381 121.262C330.757 145.057 335.045 170.551 335 196.29C334.908 248.273 317.173 298.095 285.696 334.798C254.22 371.501 211.579 392.077 167.156 392ZM167.086 366.432C208.596 366.504 248.44 347.318 277.852 313.096C307.265 278.874 323.836 232.418 323.922 183.948C324.007 135.479 307.599 88.9658 278.307 54.6417C249.015 20.3176 209.239 0.994097 167.728 0.922121C126.218 0.850188 86.3742 20.0357 56.9618 54.258C27.5494 88.4803 10.9779 134.936 10.8927 183.406C10.8075 231.875 27.2157 278.388 56.5076 312.712C85.7995 347.036 125.576 366.36 167.086 366.432Z" fill="#03423D"/>
<path d="M96.76 195.957C95.0648 183.862 93.8011 172.567 96.8525 161.918C97.5511 159.517 99.6161 157.137 103.048 154.778C108.37 151.146 110.784 144.919 110.291 136.097C108.791 109.137 115.685 84.0641 130.973 60.8792C139.171 48.4148 150.668 36.4428 157.881 22.0394C158.052 21.6895 158.328 21.4031 158.671 21.2198C159.014 21.0365 159.407 20.9652 159.796 21.0159C160.185 21.0665 160.55 21.2365 160.842 21.5025C161.134 21.7685 161.338 22.1174 161.425 22.5011C165.001 39.1511 151.131 55.955 141.021 69.2196C139.854 70.7528 138.881 72.4168 138.123 74.1746C129.493 94.446 128.651 115.559 135.596 137.512C135.712 137.877 135.912 138.209 136.18 138.483C136.447 138.757 136.775 138.965 137.137 139.091C137.499 139.216 137.885 139.256 138.265 139.206C138.645 139.156 139.008 139.019 139.326 138.805C145.963 134.332 150.411 128.218 152.672 120.462C153.617 117.179 155.271 113.271 157.634 108.736C157.74 108.523 157.905 108.346 158.11 108.224C158.315 108.103 158.551 108.044 158.789 108.054C159.027 108.063 159.257 108.142 159.451 108.279C159.646 108.417 159.796 108.608 159.884 108.829C165.031 121.663 156.802 137.512 148.357 149.607C145.13 154.203 138.586 160.174 128.723 167.519C118.449 175.152 108.534 184.826 98.9792 196.541C98.8255 196.727 98.6216 196.865 98.3917 196.939C98.1618 197.013 97.9157 197.02 97.6822 196.958C97.4487 196.897 97.2377 196.77 97.0743 196.592C96.9108 196.415 96.8018 196.194 96.76 195.957Z" fill="#03423D"/>
<path d="M198.328 356.111C198.201 356.384 197.995 356.614 197.737 356.772C197.478 356.93 197.179 357.009 196.875 356.999C196.572 356.989 196.278 356.891 196.031 356.717C195.783 356.542 195.593 356.3 195.484 356.019C185.248 331.064 171.642 307.368 155.129 285.299C135.369 258.871 123.433 218.815 139.451 187.292C139.654 186.888 139.969 186.549 140.358 186.315C140.748 186.08 141.195 185.961 141.648 185.971C142.1 185.98 142.539 186.119 142.911 186.369C143.284 186.62 143.574 186.972 143.749 187.384C145.388 191.098 146.161 195.272 145.666 199.877C144.027 215.408 148.388 236.065 161.592 246.317C161.822 246.492 162.086 246.619 162.368 246.689C162.649 246.759 162.942 246.772 163.229 246.726C163.516 246.68 163.79 246.577 164.035 246.422C164.279 246.267 164.49 246.064 164.653 245.826C189.268 209.668 202.534 162.951 186.639 119.949C179.991 101.962 166.941 63.8086 181.197 47.9396C181.563 47.5379 182.037 47.2479 182.563 47.1034C183.089 46.9589 183.645 46.966 184.167 47.1237C184.689 47.2814 185.155 47.5833 185.511 47.9941C185.867 48.4048 186.097 48.9076 186.176 49.4436C188.897 69.794 195.329 81.9182 205.503 110.188C216.759 141.475 220.975 173.807 218.15 207.182C216.759 223.757 211.131 237.815 205.008 258.564C202.596 266.77 202.534 274.74 204.822 282.475C206.121 286.864 210.048 289.136 212.893 292.512C213.719 293.493 214.226 294.691 214.347 295.95C216.233 316.362 206.925 337.786 198.328 356.111Z" fill="#03423D"/>
<path d="M1298.75 43.501L1332.59 32.1544C1332.98 32.0128 1333.4 31.9676 1333.81 32.0229C1334.22 32.0782 1334.61 32.2322 1334.94 32.4715C1335.28 32.7107 1335.55 33.0279 1335.74 33.3954C1335.92 33.7629 1336.01 34.1695 1336 34.5796L1334.6 288.882C1334.59 289.453 1334.39 290.004 1334.02 290.445C1333.66 290.885 1333.15 291.19 1332.59 291.308L1315.54 294.946C1315.17 295.024 1314.78 295.018 1314.41 294.927C1314.04 294.836 1313.69 294.664 1313.4 294.422C1313.1 294.181 1312.87 293.876 1312.71 293.532C1312.55 293.188 1312.47 292.812 1312.48 292.434L1311.6 55.5405C1311.62 55.0494 1311.48 54.5662 1311.22 54.1505C1310.95 53.7349 1310.57 53.4051 1310.12 53.202L1298.49 48.1783C1298.02 47.9693 1297.63 47.6256 1297.37 47.1923C1297.1 46.7591 1296.98 46.2566 1297 45.7507C1297.03 45.2448 1297.21 44.7592 1297.53 44.3577C1297.84 43.9562 1298.27 43.6575 1298.75 43.501Z" fill="#03423D"/>
<path d="M426.731 290.868C425.751 290.568 424.88 289.987 424.224 289.197C423.568 288.408 423.155 287.443 423.036 286.421C422.917 285.399 423.097 284.365 423.553 283.444C424.01 282.523 424.724 281.756 425.608 281.237L431.481 277.853C433.107 276.902 434.922 276.316 436.8 276.137C438.678 275.957 440.576 276.187 442.362 276.812C465.737 284.852 481.916 287.108 490.897 283.579C527.773 269.176 523.887 227.267 497.547 204.447C469.221 179.892 440.376 161.064 432.431 134.6C431.12 130.249 430.708 125.672 431.222 121.151C437.353 70.2182 487.961 55.728 531.487 64.3179C532.433 64.5016 533.32 64.9164 534.069 65.5258C534.818 66.1352 535.406 66.9203 535.781 67.812C536.157 68.7038 536.308 69.6746 536.222 70.639C536.136 71.6033 535.815 72.5315 535.287 73.3417L534.164 74.9903C532.83 77.0658 530.822 78.6097 528.487 79.3545C526.153 80.0993 523.64 79.9981 521.383 79.0684C500.397 70.6519 460.584 65.7062 452.898 95.4675C441.844 138.157 483.297 164.795 518.015 188.916C521.102 191.098 523.816 193.796 526.046 196.899C547.867 227.209 544.096 253.905 514.733 276.985C490.264 296.248 460.93 300.875 426.731 290.868Z" fill="#03423D"/>
<path d="M1780.79 289.829C1779.8 289.53 1778.91 288.952 1778.24 288.165C1777.58 287.379 1777.16 286.418 1777.04 285.4C1776.92 284.382 1777.1 283.352 1777.56 282.435C1778.03 281.517 1778.75 280.754 1779.65 280.236L1785.62 276.866C1787.28 275.933 1789.12 275.365 1791.03 275.201C1792.94 275.037 1794.86 275.28 1796.67 275.915C1820.43 283.924 1836.86 286.199 1845.99 282.743C1883.55 268.483 1879.69 226.655 1852.92 203.926C1824.23 179.382 1794.92 160.542 1786.93 134.183C1785.6 129.85 1785.18 125.291 1785.7 120.788C1792.02 70.0583 1843.53 55.7121 1887.76 64.3543C1888.71 64.5488 1889.6 64.9703 1890.36 65.582C1891.11 66.1937 1891.69 66.9771 1892.06 67.8636C1892.44 68.7502 1892.58 69.713 1892.49 70.668C1892.4 71.623 1892.07 72.5412 1891.53 73.3423L1890.39 74.9843C1889.04 77.0515 1887 78.5892 1884.62 79.331C1882.25 80.0728 1879.7 79.9721 1877.4 79.0462C1856.08 70.6632 1815.63 65.6507 1807.82 95.207C1796.5 137.727 1838.53 164.344 1873.81 188.456C1876.91 190.637 1879.64 193.324 1881.88 196.407C1903.99 226.655 1900.13 253.244 1870.3 276.174C1845.38 295.303 1815.54 299.854 1780.79 289.829Z" fill="#03423D"/>
<path d="M585.292 87.9916C585.035 88.0161 584.776 87.9869 584.53 87.9056C584.284 87.8243 584.056 87.6926 583.858 87.5181C583.661 87.3435 583.498 87.1295 583.379 86.8884C583.261 86.6473 583.189 86.3839 583.167 86.1134L583.082 85.1297C582.868 82.8612 583.073 80.5711 583.688 78.3903C584.302 76.2095 585.313 74.1807 586.662 72.4199C588.012 70.6591 589.674 69.2008 591.553 68.1284C593.433 67.056 595.493 66.3906 597.615 66.17L599.145 66.0805C603.423 65.6385 607.697 67.0288 611.026 69.9461C614.356 72.8635 616.471 77.0697 616.907 81.6418L616.992 82.6256C617.015 82.8959 616.988 83.1685 616.91 83.4274C616.833 83.6864 616.708 83.9268 616.542 84.1346C616.376 84.3424 616.173 84.5137 615.944 84.6384C615.715 84.7632 615.464 84.8389 615.207 84.8614L585.292 87.9916Z" fill="#03423D"/>
<path d="M1613.5 85.9971C1613.32 86.009 1613.14 85.9843 1612.96 85.9246C1612.79 85.8649 1612.62 85.7713 1612.49 85.6492C1612.35 85.5271 1612.24 85.3789 1612.15 85.2131C1612.07 85.0472 1612.03 84.8669 1612.01 84.6827V84.2445C1611.83 79.634 1613.48 75.1362 1616.62 71.7365C1619.76 68.3367 1624.12 66.3122 1628.75 66.1065L1630.68 66.0188C1632.98 65.9124 1635.28 66.259 1637.45 67.0385C1639.62 67.8181 1641.61 69.0153 1643.31 70.5617C1645.01 72.1082 1646.39 73.9734 1647.37 76.0507C1648.34 78.1279 1648.9 80.3764 1649 82.6674V83.1055C1649.01 83.2968 1648.98 83.4886 1648.92 83.6689C1648.85 83.8493 1648.75 84.0144 1648.62 84.154C1648.49 84.2936 1648.33 84.4048 1648.15 84.4806C1647.98 84.5565 1647.79 84.5955 1647.6 84.5951L1613.5 85.9971Z" fill="#03423D"/>
<path d="M1211.5 70.8674C1235.3 70.7808 1266.13 65.065 1288.19 74.0716C1288.8 74.2995 1289.32 74.739 1289.64 75.3115C1289.97 75.884 1290.07 76.5523 1289.95 77.1973C1289.82 77.8423 1289.47 78.422 1288.96 78.8329C1288.45 79.2439 1287.8 79.4593 1287.14 79.4408H1233.3C1230.81 79.4408 1228.43 80.4263 1226.67 82.1803C1224.91 83.9343 1223.92 86.3132 1223.92 88.7938V287.89C1223.92 289.142 1223.45 290.348 1222.59 291.264C1221.74 292.18 1220.57 292.739 1219.32 292.827C1217.93 292.942 1215.47 293 1211.93 293C1208.34 293 1205.85 292.942 1204.47 292.827C1203.21 292.739 1202.04 292.18 1201.19 291.264C1200.33 290.348 1199.86 289.142 1199.86 287.89L1199.17 88.8805C1199.17 87.6449 1198.92 86.4214 1198.45 85.281C1197.97 84.1406 1197.27 83.1057 1196.39 82.236C1195.51 81.3664 1194.47 80.6793 1193.32 80.2144C1192.17 79.7495 1190.94 79.5161 1189.7 79.5275L1135.86 79.7006C1135.2 79.719 1134.55 79.5037 1134.04 79.0927C1133.53 78.6818 1133.18 78.1021 1133.05 77.4571C1132.93 76.8121 1133.03 76.1438 1133.36 75.5713C1133.68 74.9987 1134.2 74.5593 1134.81 74.3314C1156.87 65.2382 1187.7 70.8674 1211.5 70.8674Z" fill="#03423D"/>
<path d="M767.681 287.134C756.073 291.781 746.688 294.392 739.527 294.966C738.022 295.085 736.509 294.893 735.084 294.401C733.658 293.91 732.35 293.13 731.243 292.111C730.135 291.092 729.253 289.855 728.651 288.48C728.049 287.105 727.741 285.621 727.746 284.121V159.925C727.746 157.508 727.123 155.137 725.94 153.041C724.756 150.944 723.05 149.195 720.989 147.961C704.01 137.719 690.496 142.022 679.581 158.031C675.943 163.367 671.005 169.191 664.768 175.503C664.364 175.893 663.875 176.187 663.34 176.363C662.804 176.538 662.236 176.591 661.677 176.516C661.118 176.442 660.583 176.242 660.114 175.932C659.644 175.623 659.251 175.211 658.964 174.728L657.405 172.06C657.139 171.587 657 171.053 657 170.511C657 169.969 657.139 169.436 657.405 168.962C668.32 150.486 686.309 138.407 711.373 132.727C747.843 124.464 750.615 146.928 749.662 177.138C749.316 187.753 749.085 220.316 748.969 274.826C748.969 276.994 749.836 279.074 751.38 280.607C752.923 282.141 755.016 283.002 757.199 283.002H766.901C767.394 283.018 767.868 283.2 768.243 283.519C768.618 283.838 768.872 284.274 768.963 284.756C769.054 285.239 768.976 285.737 768.743 286.17C768.51 286.602 768.135 286.942 767.681 287.134Z" fill="#03423D"/>
<path d="M837.214 165.94C849.139 147.876 865.616 136.493 886.644 131.791C892.745 130.399 899.029 130.854 904.494 133.083C909.96 135.312 914.292 139.187 916.803 144.092C919.971 150.4 921.354 158.342 920.951 167.919C918.704 216.834 919.712 256.489 923.975 286.882C924.042 287.268 923.974 287.663 923.783 287.995C923.593 288.326 923.293 288.573 922.938 288.688L900.989 295.828C900.5 295.994 899.979 296.041 899.468 295.964C898.958 295.886 898.474 295.686 898.057 295.382C897.641 295.078 897.305 294.678 897.078 294.216C896.851 293.754 896.74 293.245 896.754 292.731L898.051 161.897C898.068 159.975 897.584 158.079 896.645 156.391C895.707 154.704 894.345 153.282 892.693 152.263C878.002 143.489 860.431 148.794 839.979 168.177C839.656 168.446 839.249 168.595 838.828 168.598C838.407 168.601 837.997 168.458 837.67 168.193C837.343 167.929 837.119 167.559 837.036 167.148C836.953 166.737 837.016 166.31 837.214 165.94Z" fill="#03423D"/>
<path d="M929.214 166.288C940.927 148.256 957.256 136.779 978.201 131.856C984.287 130.412 990.57 130.803 996.045 132.967C1001.52 135.13 1005.87 138.941 1008.41 143.791C1011.64 150.031 1013.08 157.931 1012.73 167.49C1011 216.147 1012.42 255.559 1016.97 285.727C1017.04 286.112 1016.97 286.507 1016.78 286.838C1016.59 287.169 1016.29 287.415 1015.94 287.53L994.126 294.828C993.644 294.992 993.129 295.04 992.625 294.967C992.12 294.894 991.641 294.702 991.226 294.408C990.811 294.114 990.473 293.726 990.24 293.277C990.007 292.827 989.885 292.329 989.885 291.823V161.737C989.887 159.823 989.386 157.939 988.43 156.269C987.474 154.598 986.097 153.199 984.432 152.206C969.661 143.62 952.179 149.058 931.984 168.521C931.66 168.789 931.253 168.938 930.831 168.941C930.409 168.944 929.999 168.801 929.671 168.537C929.344 168.273 929.119 167.904 929.036 167.494C928.952 167.084 929.016 166.657 929.214 166.288Z" fill="#03423D"/>
<path d="M1431.75 289.19C1422.05 294.032 1414.56 295.847 1409.26 294.637C1407.87 294.322 1406.62 293.525 1405.73 292.378C1404.84 291.23 1404.35 289.801 1404.35 288.326V162.708C1404.36 159.489 1403.29 156.362 1401.32 153.835C1399.36 151.308 1396.61 149.53 1393.53 148.789C1384.4 146.628 1370.44 146.887 1363.09 153.976C1358.46 158.414 1355.96 160.633 1355.56 160.633C1355.09 160.654 1354.63 160.537 1354.22 160.295C1353.81 160.053 1353.48 159.697 1353.27 159.269C1353.05 158.84 1352.97 158.358 1353.01 157.88C1353.06 157.401 1353.24 156.946 1353.53 156.57C1376.62 128.818 1426.17 112.651 1425.92 167.29C1425.69 230.171 1425.63 264.551 1425.75 270.43C1425.85 273.703 1427.18 276.824 1429.47 279.162L1432.77 282.533C1433.23 283.002 1433.58 283.577 1433.79 284.21C1434 284.843 1434.05 285.515 1433.95 286.169C1433.85 286.823 1433.6 287.439 1433.22 287.965C1432.83 288.491 1432.33 288.911 1431.75 289.19Z" fill="#03423D"/>
<path d="M1581.66 282.826C1582.19 282.774 1582.72 282.926 1583.15 283.253C1583.58 283.579 1583.87 284.057 1583.96 284.591C1584.06 285.125 1583.96 285.676 1583.67 286.136C1583.39 286.595 1582.94 286.929 1582.43 287.072C1570.94 291.752 1561.64 294.381 1554.53 294.959C1553.04 295.091 1551.54 294.905 1550.13 294.411C1548.72 293.918 1547.42 293.128 1546.32 292.093C1545.22 291.057 1544.34 289.798 1543.74 288.397C1543.15 286.995 1542.84 285.482 1542.84 283.952L1543.01 158.292C1543.01 155.838 1542.39 153.43 1541.21 151.304C1540.03 149.177 1538.33 147.405 1536.27 146.16C1519.55 135.76 1506.16 140.093 1495.32 156.299C1491.74 161.73 1486.85 167.623 1480.65 173.978C1480.25 174.371 1479.77 174.667 1479.24 174.844C1478.72 175.021 1478.16 175.074 1477.61 174.998C1477.06 174.923 1476.53 174.722 1476.07 174.41C1475.6 174.099 1475.22 173.684 1474.93 173.198L1473.4 170.512C1473.14 170.035 1473 169.498 1473 168.952C1473 168.406 1473.14 167.869 1473.4 167.392C1484.21 148.673 1502.01 136.453 1526.8 130.734C1562.89 122.414 1565.62 145.12 1564.68 175.711C1564.34 186.457 1564.09 219.418 1563.92 274.593C1563.92 276.776 1564.77 278.87 1566.29 280.414C1567.81 281.958 1569.87 282.826 1572.02 282.826H1581.66Z" fill="#03423D"/>
<path d="M2210.81 282.729C2211.32 282.725 2211.8 282.895 2212.19 283.209C2212.58 283.524 2212.85 283.964 2212.95 284.455C2213.06 284.946 2212.99 285.457 2212.75 285.901C2212.52 286.346 2212.14 286.696 2211.68 286.892C2200 291.634 2190.55 294.323 2183.32 294.959C2181.81 295.091 2180.3 294.906 2178.87 294.418C2177.44 293.929 2176.12 293.146 2175 292.119C2173.89 291.092 2172.99 289.843 2172.38 288.451C2171.77 287.058 2171.45 285.553 2171.44 284.03L2171.09 158.263C2171.07 155.821 2170.43 153.429 2169.23 151.317C2168.03 149.206 2166.31 147.445 2164.24 146.206C2147.15 135.885 2133.62 140.222 2122.7 156.528C2119.05 161.906 2114.08 167.804 2107.78 174.222C2107.37 174.615 2106.88 174.912 2106.35 175.089C2105.81 175.266 2105.24 175.318 2104.68 175.243C2104.12 175.168 2103.59 174.967 2103.12 174.655C2102.65 174.343 2102.25 173.928 2101.97 173.441L2100.41 170.753C2100.14 170.275 2100 169.738 2100 169.191C2100 168.645 2100.14 168.108 2100.41 167.63C2111.33 148.895 2129.37 136.608 2154.53 130.767C2191.21 122.354 2194.07 145.079 2193.21 175.61C2192.86 186.365 2192.72 219.325 2192.77 274.489C2192.77 275.578 2192.99 276.657 2193.41 277.663C2193.83 278.668 2194.44 279.58 2195.22 280.346C2195.99 281.113 2196.91 281.718 2197.92 282.127C2198.93 282.536 2200.01 282.74 2201.1 282.729H2210.81Z" fill="#03423D"/>
<path d="M791.302 142.758L823.5 132.242C824.121 132.018 824.788 131.948 825.445 132.038C826.101 132.127 826.727 132.373 827.268 132.755C827.809 133.137 828.25 133.642 828.551 134.229C828.853 134.815 829.007 135.464 829 136.121V290.242C829 290.973 828.701 291.675 828.168 292.192C827.636 292.709 826.914 293 826.161 293H807.179C806.997 293 806.816 292.964 806.649 292.894C806.481 292.824 806.33 292.721 806.206 292.591C806.081 292.462 805.985 292.309 805.923 292.142C805.862 291.975 805.837 291.798 805.849 291.621C807.445 264.153 807.504 220.968 806.026 162.066C805.849 151.981 800.527 148.275 791.479 146.12C791.081 146.054 790.718 145.859 790.449 145.566C790.181 145.273 790.023 144.9 790.002 144.508C789.982 144.116 790.099 143.729 790.335 143.411C790.572 143.093 790.912 142.862 791.302 142.758Z" fill="#03423D"/>
<path d="M1973.74 164.782C1986.99 148.891 2000.6 138.737 2014.59 134.32C2095.35 108.763 2093.74 302.979 1970.34 293.944C1969.79 293.896 1969.23 293.965 1968.71 294.147C1968.19 294.329 1967.7 294.619 1967.3 294.999C1966.89 295.38 1966.57 295.842 1966.34 296.357C1966.12 296.871 1966.01 297.427 1966.01 297.988V384.125C1966.01 384.713 1965.85 385.293 1965.53 385.796C1965.22 386.299 1964.76 386.704 1964.23 386.964C1959.19 389.488 1954.43 391.152 1949.96 391.955C1949.54 392.03 1949.1 392.011 1948.69 391.899C1948.27 391.787 1947.88 391.585 1947.55 391.307C1947.22 391.028 1946.95 390.681 1946.77 390.288C1946.58 389.895 1946.48 389.465 1946.48 389.03V156.865C1946.47 155.329 1945.99 153.833 1945.11 152.584C1944.23 151.335 1942.99 150.395 1941.55 149.895L1933.4 147.228C1932.99 147.077 1932.63 146.802 1932.38 146.44C1932.13 146.078 1932 145.647 1932 145.205C1932 144.764 1932.13 144.332 1932.38 143.971C1932.63 143.609 1932.99 143.334 1933.4 143.183L1960.58 133.89C1961.19 133.671 1961.84 133.607 1962.48 133.701C1963.12 133.796 1963.74 134.047 1964.27 134.434C1964.8 134.821 1965.23 135.332 1965.54 135.926C1965.84 136.52 1966 137.179 1966.01 137.848V272.947C1966.01 274.221 1966.42 275.461 1967.17 276.484C1967.92 277.506 1968.97 278.258 1970.17 278.627C2002.44 288.35 2027.67 284.564 2040.66 251.091C2051.45 223.296 2060.53 140.344 2009.92 147.486C1998.03 149.207 1988.01 162.545 1976.12 167.966C1975.7 168.139 1975.24 168.167 1974.81 168.047C1974.37 167.927 1973.99 167.664 1973.72 167.301C1973.45 166.938 1973.3 166.494 1973.31 166.038C1973.31 165.582 1973.46 165.141 1973.74 164.782Z" fill="#03423D"/>
<path d="M622.522 282.433C623.021 282.752 623.424 283.205 623.683 283.74C623.942 284.275 624.045 284.869 623.982 285.453C623.918 286.036 623.69 286.584 623.324 287.033C622.958 287.482 622.469 287.812 621.916 287.985L599.592 295.618C598.49 295.988 597.317 296.091 596.167 295.919C595.018 295.747 593.926 295.304 592.981 294.626C592.035 293.949 591.263 293.057 590.728 292.024C590.193 290.99 589.909 289.843 589.901 288.679L589.468 159.519C589.457 157.796 588.954 156.113 588.018 154.668C587.083 153.224 585.755 152.077 584.19 151.365C582.113 150.382 580.469 149.601 579.258 149.023C578.535 148.652 577.937 148.076 577.538 147.367C577.138 146.658 576.954 145.847 577.01 145.035C577.065 144.223 577.357 143.444 577.848 142.797C578.34 142.149 579.011 141.659 579.777 141.39L606.601 132.195C607.201 132.002 607.839 131.951 608.461 132.047C609.083 132.144 609.672 132.384 610.179 132.748C610.686 133.112 611.096 133.59 611.377 134.143C611.658 134.695 611.8 135.306 611.792 135.925L612.225 271.504C612.225 272.957 612.591 274.383 613.288 275.644C613.985 276.904 614.99 277.958 616.205 278.703L622.522 282.433Z" fill="#03423D"/>
<path d="M1653.89 288.067L1631.32 295.618C1630.21 295.988 1629.02 296.091 1627.86 295.919C1626.69 295.746 1625.59 295.303 1624.63 294.626C1623.68 293.949 1622.9 293.056 1622.36 292.022C1621.82 290.987 1621.53 289.84 1621.52 288.675V159.447C1621.52 157.733 1621.02 156.055 1620.09 154.61C1619.16 153.166 1617.84 152.013 1616.27 151.288C1614.17 150.305 1612.51 149.524 1611.28 148.945C1610.55 148.573 1609.95 147.997 1609.54 147.288C1609.14 146.579 1608.95 145.768 1609.01 144.955C1609.07 144.142 1609.36 143.363 1609.86 142.715C1610.36 142.067 1611.03 141.578 1611.81 141.308L1638.93 132.195C1639.54 132.002 1640.18 131.951 1640.81 132.047C1641.44 132.144 1642.04 132.384 1642.55 132.749C1643.06 133.113 1643.48 133.591 1643.76 134.144C1644.05 134.696 1644.19 135.308 1644.18 135.927V271.577C1644.18 273.032 1644.55 274.459 1645.26 275.72C1645.96 276.981 1646.98 278.035 1648.21 278.781L1654.51 282.513C1655.01 282.831 1655.42 283.285 1655.68 283.82C1655.94 284.356 1656.05 284.95 1655.98 285.534C1655.92 286.118 1655.69 286.666 1655.32 287.115C1654.95 287.564 1654.45 287.894 1653.89 288.067Z" fill="#03423D"/>
<path d="M705.986 280.817C706.249 280.722 706.529 280.68 706.809 280.694C707.088 280.708 707.362 280.778 707.614 280.899C707.867 281.021 708.092 281.191 708.276 281.401C708.461 281.61 708.602 281.855 708.69 282.119L709.736 285.245C709.877 285.589 709.874 285.977 709.729 286.331C709.583 286.685 709.305 286.979 708.951 287.154C674.59 304.863 644.938 292.276 653.485 252.604C658.456 229.6 675.985 219.964 696.044 210.502C704.184 206.682 711.277 205.293 717.323 206.335C717.787 206.4 718.206 206.624 718.512 206.969C718.817 207.313 718.989 207.758 719 208.227C719.01 208.696 718.857 209.161 718.568 209.544C718.279 209.927 717.87 210.203 717.411 210.328C691.335 216.665 670.84 236.978 673.544 265.539C675.201 283.855 691.596 285.852 705.986 280.817Z" fill="#03423D"/>
<path d="M1520.55 280.529C1520.81 280.431 1521.09 280.385 1521.37 280.393C1521.64 280.402 1521.91 280.465 1522.17 280.578C1522.42 280.692 1522.65 280.854 1522.84 281.056C1523.03 281.257 1523.18 281.494 1523.27 281.753L1524.41 284.898C1524.55 285.244 1524.55 285.635 1524.4 285.991C1524.26 286.348 1523.98 286.644 1523.62 286.82C1489.14 304.994 1459.13 292.587 1467.38 252.57C1472.21 229.328 1489.75 219.455 1509.85 209.669C1518.04 205.767 1525.17 204.31 1531.26 205.301C1531.73 205.354 1532.16 205.569 1532.48 205.909C1532.79 206.25 1532.98 206.695 1533 207.168C1533.02 207.642 1532.87 208.115 1532.59 208.508C1532.3 208.9 1531.9 209.187 1531.43 209.32C1505.2 215.96 1484.75 236.58 1487.74 265.414C1489.58 283.849 1506.16 285.684 1520.55 280.529Z" fill="#03423D"/>
<path d="M2149.9 280.981C2150.44 280.815 2151.02 280.868 2151.52 281.13C2152.02 281.391 2152.4 281.839 2152.58 282.379L2153.53 285.524C2153.67 285.871 2153.67 286.262 2153.52 286.618C2153.38 286.974 2153.1 287.27 2152.75 287.446C2118.09 304.919 2088.52 291.727 2097.69 251.539C2103.05 228.213 2120.68 218.691 2140.91 209.343C2149.15 205.557 2156.3 204.246 2162.35 205.411C2162.81 205.509 2163.23 205.767 2163.53 206.141C2163.84 206.515 2164 206.982 2164 207.464C2164 207.946 2163.84 208.414 2163.53 208.788C2163.23 209.162 2162.81 209.419 2162.35 209.517C2136.15 215.545 2115.32 235.901 2117.57 264.993C2118.95 283.602 2135.38 285.873 2149.9 280.981Z" fill="#03423D"/>
</svg>
