<svg width="1440" height="339" viewBox="0 0 1440 339" fill="none" xmlns="http://www.w3.org/2000/svg">
<path d="M447.512 93.728V74.4H518.424V93.728H493.72V164H472.088V93.728H447.512ZM534.238 126.496V107.04H602.078V126.496H534.238ZM588.382 74.4H610.014V164H588.382V74.4ZM528.222 74.4H549.854V164H528.222V74.4ZM643.183 164V146.208H688.367V164H643.183ZM643.183 92.192V74.4H688.367V92.192H643.183ZM643.183 125.6V108.192H685.807V125.6H643.183ZM628.847 74.4H649.583V164H628.847V74.4ZM744.347 74.4H766.363V164H744.347V74.4ZM803.779 119.2C803.779 124.661 805.016 129.397 807.491 133.408C809.966 137.333 813.208 140.32 817.219 142.368C821.315 144.416 825.795 145.44 830.659 145.44C834.926 145.44 838.68 144.885 841.923 143.776C845.166 142.667 848.067 141.216 850.627 139.424C853.187 137.632 855.448 135.712 857.411 133.664V156.96C853.827 159.776 849.902 161.995 845.635 163.616C841.368 165.237 835.95 166.048 829.379 166.048C822.211 166.048 815.598 164.939 809.539 162.72C803.48 160.501 798.275 157.301 793.923 153.12C789.571 148.939 786.2 143.989 783.811 138.272C781.422 132.555 780.227 126.197 780.227 119.2C780.227 112.203 781.422 105.845 783.811 100.128C786.2 94.4107 789.571 89.4613 793.923 85.28C798.275 81.0987 803.48 77.8987 809.539 75.68C815.598 73.4613 822.211 72.352 829.379 72.352C835.95 72.352 841.368 73.1627 845.635 74.784C849.902 76.4053 853.827 78.624 857.411 81.44V104.736C855.448 102.688 853.187 100.768 850.627 98.976C848.067 97.0987 845.166 95.648 841.923 94.624C838.68 93.5147 834.926 92.96 830.659 92.96C825.795 92.96 821.315 93.984 817.219 96.032C813.208 98.08 809.966 101.067 807.491 104.992C805.016 108.917 803.779 113.653 803.779 119.2ZM892.889 119.2C892.889 124.491 893.913 129.184 895.961 133.28C898.094 137.291 901.038 140.448 904.793 142.752C908.633 145.056 913.113 146.208 918.233 146.208C923.268 146.208 927.662 145.056 931.417 142.752C935.257 140.448 938.201 137.291 940.249 133.28C942.382 129.184 943.449 124.491 943.449 119.2C943.449 113.909 942.425 109.259 940.377 105.248C938.329 101.152 935.428 97.952 931.673 95.648C927.918 93.344 923.438 92.192 918.233 92.192C913.113 92.192 908.633 93.344 904.793 95.648C901.038 97.952 898.094 101.152 895.961 105.248C893.913 109.259 892.889 113.909 892.889 119.2ZM869.977 119.2C869.977 112.288 871.172 105.973 873.561 100.256C876.036 94.5387 879.449 89.5893 883.801 85.408C888.153 81.2267 893.273 78.0267 899.161 75.808C905.049 73.504 911.406 72.352 918.233 72.352C925.145 72.352 931.502 73.504 937.305 75.808C943.193 78.0267 948.313 81.2267 952.665 85.408C957.017 89.5893 960.388 94.5387 962.777 100.256C965.166 105.973 966.361 112.288 966.361 119.2C966.361 126.112 965.166 132.469 962.777 138.272C960.473 144.075 957.145 149.109 952.793 153.376C948.526 157.643 943.449 160.971 937.561 163.36C931.673 165.664 925.23 166.816 918.233 166.816C911.15 166.816 904.665 165.664 898.777 163.36C892.889 160.971 887.769 157.643 883.417 153.376C879.15 149.109 875.822 144.075 873.433 138.272C871.129 132.469 869.977 126.112 869.977 119.2ZM1042.05 74.4H1062.91V168.48L1000.96 113.568V164H980.222V69.92L1042.05 124.832V74.4ZM1130.08 132.512C1131.87 135.755 1133.88 138.571 1136.09 140.96C1138.4 143.349 1140.87 145.184 1143.52 146.464C1146.25 147.744 1149.11 148.384 1152.09 148.384C1155.25 148.384 1157.85 147.616 1159.9 146.08C1161.95 144.459 1162.97 142.283 1162.97 139.552C1162.97 137.248 1162.38 135.413 1161.18 134.048C1159.99 132.597 1158.07 131.232 1155.42 129.952C1152.78 128.672 1149.28 127.221 1144.93 125.6C1142.79 124.832 1140.32 123.765 1137.5 122.4C1134.77 121.035 1132.17 119.285 1129.69 117.152C1127.22 114.933 1125.17 112.288 1123.55 109.216C1121.93 106.059 1121.12 102.261 1121.12 97.824C1121.12 92.5333 1122.48 87.968 1125.21 84.128C1128.03 80.288 1131.78 77.3867 1136.48 75.424C1141.26 73.376 1146.55 72.352 1152.35 72.352C1158.32 72.352 1163.49 73.3333 1167.84 75.296C1172.28 77.2587 1175.94 79.7333 1178.85 82.72C1181.75 85.7067 1183.97 88.736 1185.5 91.808L1168.99 101.024C1167.71 98.8907 1166.22 97.056 1164.51 95.52C1162.89 93.8987 1161.05 92.6613 1159.01 91.808C1157.04 90.8693 1154.91 90.4 1152.61 90.4C1149.53 90.4 1147.19 91.0827 1145.57 92.448C1143.94 93.728 1143.13 95.3493 1143.13 97.312C1143.13 99.36 1143.9 101.152 1145.44 102.688C1147.06 104.224 1149.32 105.632 1152.22 106.912C1155.21 108.192 1158.79 109.557 1162.97 111.008C1166.13 112.203 1169.08 113.611 1171.81 115.232C1174.54 116.768 1176.93 118.645 1178.97 120.864C1181.11 123.083 1182.77 125.643 1183.97 128.544C1185.16 131.445 1185.76 134.773 1185.76 138.528C1185.76 143.051 1184.82 147.104 1182.94 150.688C1181.15 154.187 1178.68 157.131 1175.52 159.52C1172.45 161.909 1168.9 163.701 1164.89 164.896C1160.97 166.176 1156.92 166.816 1152.73 166.816C1146.93 166.816 1141.51 165.792 1136.48 163.744C1131.53 161.611 1127.22 158.752 1123.55 155.168C1119.88 151.584 1117.02 147.659 1114.97 143.392L1130.08 132.512ZM1200.22 74.4H1222.24V164H1200.22V74.4ZM1255.3 146.72L1256.84 130.208H1301.25L1302.66 146.72H1255.3ZM1278.73 107.296L1266.18 136.224L1267.21 140.96L1256.07 164H1231.62L1278.73 68.768L1325.96 164H1301.38L1290.63 141.856L1291.4 136.352L1278.73 107.296ZM1358.39 118.304L1353.01 164H1330.23L1344.69 69.92L1382.84 124.576L1421.11 69.92L1435.57 164H1412.79L1407.41 118.304L1382.84 155.68L1358.39 118.304Z" fill="#C4AA69"/>
<path d="M560.82 230.78C560.26 230.78 559.653 230.547 559 230.08C557.32 228.493 556.48 226.487 556.48 224.06C556.48 221.167 557.693 218.18 560.12 215.1C562.64 211.927 566.327 209.407 571.18 207.54C576.687 205.393 582.66 203.62 589.1 202.22C595.54 200.727 602.12 199.653 608.84 199C615.653 198.253 622.187 197.88 628.44 197.88C630.773 197.88 633.06 197.927 635.3 198.02C637.54 198.113 639.687 198.253 641.74 198.44C655.46 199.747 665.913 202.36 673.1 206.28C680.38 210.2 684.02 214.307 684.02 218.6C684.02 220.373 683.413 222.053 682.2 223.64C681.64 224.387 680.8 225.133 679.68 225.88C678.653 226.533 677.813 226.86 677.16 226.86C676.6 226.86 676.32 226.58 676.32 226.02C676.32 225.367 676.787 224.293 677.72 222.8C678.84 221.12 679.4 219.58 679.4 218.18C679.4 215.473 677.673 213.373 674.22 211.88C670.86 210.293 666.427 209.22 660.92 208.66C655.507 208.007 649.673 207.68 643.42 207.68C639.127 207.68 634.787 207.82 630.4 208.1C626.013 208.287 621.907 208.567 618.08 208.94C616.307 209.127 613.6 209.453 609.96 209.92C606.413 210.387 602.4 210.993 597.92 211.74C593.44 212.393 588.913 213.233 584.34 214.26C579.767 215.193 575.567 216.267 571.74 217.48C567.913 218.693 564.787 220.047 562.36 221.54C560.027 222.94 558.86 224.527 558.86 226.3C558.86 227.513 559.56 228.773 560.96 230.08C561.147 230.267 561.24 230.407 561.24 230.5C561.24 230.687 561.1 230.78 560.82 230.78ZM599.32 301.34C594.467 300.967 591.153 299.427 589.38 296.72C587.607 294.013 586.72 290.84 586.72 287.2C586.72 284.12 587.14 280.947 587.98 277.68C588.82 274.413 589.707 271.427 590.64 268.72C591.573 266.107 592.787 263.353 594.28 260.46C595.867 257.567 597.967 254.113 600.58 250.1C603.287 246.087 606.787 241.047 611.08 234.98C615.373 228.913 620.693 221.4 627.04 212.44C628.16 211.04 629.14 210.34 629.98 210.34C630.54 210.34 630.913 210.573 631.1 211.04C631.38 211.413 631.427 211.787 631.24 212.16C622.467 225.133 615.7 236.287 610.94 245.62C606.273 254.86 602.82 262.747 600.58 269.28C600.113 270.587 599.507 272.453 598.76 274.88C598.107 277.213 597.5 279.78 596.94 282.58C596.38 285.287 596.1 287.853 596.1 290.28C596.1 292.893 596.567 295.133 597.5 297C598.433 298.867 600.067 299.8 602.4 299.8C603.8 299.8 605.107 299.333 606.32 298.4C606.787 298.12 607.067 297.98 607.16 297.98C607.347 297.98 607.44 298.073 607.44 298.26C607.44 298.54 607.16 298.913 606.6 299.38C604.827 300.967 602.4 301.62 599.32 301.34ZM649.806 290.14C647.473 290.14 645.606 289.487 644.206 288.18C642.9 286.873 642.246 285.1 642.246 282.86C642.246 281.46 642.573 279.873 643.226 278.1C643.88 276.327 644.906 274.507 646.306 272.64C648.453 269.747 650.506 267.227 652.466 265.08C654.426 262.84 655.873 260.833 656.806 259.06C657.74 257.38 658.206 256.073 658.206 255.14C658.206 253.74 657.366 253.04 655.686 253.04C654.193 253.04 652.046 253.88 649.246 255.56C646.54 257.147 643.693 259.76 640.706 263.4C639.026 265.453 637.113 267.88 634.966 270.68C632.82 273.387 631.093 275.907 629.786 278.24C629.226 279.267 628.666 280.34 628.106 281.46C627.64 282.487 626.893 284.26 625.866 286.78C625.586 287.433 624.793 288.133 623.486 288.88C622.273 289.627 621.293 290 620.546 290C619.986 290 619.706 289.767 619.706 289.3C619.706 288.927 619.846 288.46 620.126 287.9C620.593 287.06 621.62 284.4 623.206 279.92C624.886 275.44 626.986 270.167 629.506 264.1C628.106 265.593 626.566 267.227 624.886 269C623.206 270.68 621.34 272.313 619.286 273.9C618.913 274.273 618.493 274.46 618.026 274.46C617.466 274.46 617.186 274.227 617.186 273.76C617.186 273.387 617.606 272.873 618.446 272.22C620.593 270.353 622.74 268.393 624.886 266.34C627.033 264.193 629.366 261.533 631.886 258.36C632.726 256.307 634.22 253.367 636.366 249.54C638.513 245.62 641.08 241.28 644.066 236.52C647.053 231.76 650.366 227 654.006 222.24C657.646 217.48 661.38 213.233 665.206 209.5C668.66 206.14 672.253 203.573 675.986 201.8C679.813 200.027 683.266 199.14 686.346 199.14C689.053 199.14 691.246 199.793 692.926 201.1C694.606 202.407 695.446 204.507 695.446 207.4C695.446 210.293 694.653 213.373 693.066 216.64C691.48 219.907 689.8 222.52 688.026 224.48C684.013 228.96 679.253 233.067 673.746 236.8C668.333 240.533 662.64 243.707 656.666 246.32C656.48 246.413 656.293 246.507 656.106 246.6C655.92 246.6 655.733 246.6 655.546 246.6C654.893 246.6 654.566 246.367 654.566 245.9C654.566 245.34 655.08 244.873 656.106 244.5C659.653 242.913 663.246 240.953 666.886 238.62C670.62 236.287 674.073 233.767 677.246 231.06C680.42 228.353 683.08 225.647 685.226 222.94C687.746 219.767 689.38 217.2 690.126 215.24C690.873 213.187 691.246 211.46 691.246 210.06C691.246 208.193 690.22 207.26 688.166 207.26C687.233 207.26 685.88 207.727 684.106 208.66C682.333 209.5 680.233 210.9 677.806 212.86C674.073 215.847 670.2 219.487 666.186 223.78C662.266 228.073 658.393 232.74 654.566 237.78C650.833 242.82 647.286 247.953 643.926 253.18C640.566 258.407 637.533 263.493 634.826 268.44C635.946 266.853 637.113 265.267 638.326 263.68C639.54 262 640.753 260.507 641.966 259.2C644.766 256.12 647.52 253.88 650.226 252.48C652.933 251.08 655.36 250.38 657.506 250.38C659.933 250.38 661.893 251.127 663.386 252.62C664.88 254.02 665.626 255.933 665.626 258.36C665.626 259.667 665.393 260.973 664.926 262.28C664.553 263.493 664.086 264.613 663.526 265.64C662.78 267.227 661.8 269.093 660.586 271.24C659.373 273.387 658.206 275.393 657.086 277.26C654.94 280.713 653.866 283.187 653.866 284.68C653.866 285.52 654.24 285.94 654.986 285.94C655.92 285.94 657.46 285.287 659.606 283.98C661.286 282.953 663.153 281.647 665.206 280.06C667.353 278.38 669.453 276.653 671.506 274.88C673.653 273.107 675.473 271.567 676.966 270.26C678.553 268.86 679.58 267.927 680.046 267.46C680.606 266.9 681.026 266.62 681.306 266.62C681.586 266.62 681.726 266.76 681.726 267.04C681.726 267.507 681.4 268.16 680.746 269C678.32 271.52 675.286 274.367 671.646 277.54C668.006 280.713 663.9 283.793 659.326 286.78C657.553 287.993 655.826 288.88 654.146 289.44C652.56 289.907 651.113 290.14 649.806 290.14ZM683.731 290.14C680.838 290.14 678.598 289.253 677.011 287.48C675.425 285.613 674.631 283.233 674.631 280.34C674.631 277.633 675.331 274.647 676.731 271.38C678.225 268.113 680.558 264.8 683.731 261.44C686.998 257.893 691.058 255.047 695.911 252.9C700.765 250.66 705.385 249.54 709.771 249.54C713.318 249.54 716.351 250.333 718.871 251.92C721.391 253.413 723.071 255.327 723.911 257.66C724.938 257.66 726.198 257.94 727.691 258.5C729.278 259.06 730.071 260.087 730.071 261.58C730.071 262.607 729.558 263.773 728.531 265.08C727.878 266.013 726.711 267.413 725.031 269.28C723.445 271.147 721.951 273.153 720.551 275.3C719.431 276.98 718.545 278.567 717.891 280.06C717.238 281.46 716.911 282.673 716.911 283.7C716.911 285.1 717.611 285.8 719.011 285.8C720.598 285.8 722.978 284.913 726.151 283.14C729.605 281.18 732.918 278.94 736.091 276.42C739.265 273.9 741.738 271.893 743.511 270.4C743.978 270.027 744.305 269.84 744.491 269.84C744.865 269.84 745.051 270.073 745.051 270.54C745.051 271.1 744.818 271.613 744.351 272.08C743.511 272.827 741.878 274.227 739.451 276.28C737.025 278.333 734.225 280.48 731.051 282.72C727.971 284.96 724.938 286.78 721.951 288.18C720.458 288.833 719.058 289.347 717.751 289.72C716.538 290 715.418 290.14 714.391 290.14C711.871 290.14 709.958 289.44 708.651 288.04C707.345 286.547 706.691 284.633 706.691 282.3C706.691 281.367 706.831 280.387 707.111 279.36C707.391 278.333 707.718 277.307 708.091 276.28L709.071 273.9C706.645 276.887 704.218 279.407 701.791 281.46C699.365 283.42 696.938 285.147 694.511 286.64C692.458 287.853 690.498 288.74 688.631 289.3C686.858 289.86 685.225 290.14 683.731 290.14ZM688.071 286.5C689.751 286.5 692.178 285.52 695.351 283.56C698.525 281.507 702.211 278.38 706.411 274.18C706.971 273.62 707.998 272.64 709.491 271.24C711.078 269.747 712.758 268.113 714.531 266.34C716.305 264.473 717.798 262.653 719.011 260.88C720.318 259.013 720.971 257.473 720.971 256.26C720.971 254.487 719.431 253.6 716.351 253.6C713.645 253.6 710.378 254.673 706.551 256.82C702.818 258.873 699.225 261.953 695.771 266.06C692.225 270.26 689.611 273.9 687.931 276.98C686.345 279.967 685.551 282.253 685.551 283.84C685.551 285.613 686.391 286.5 688.071 286.5ZM773.833 247.16C772.527 247.16 771.547 246.74 770.893 245.9C770.24 245.06 769.913 244.173 769.913 243.24C769.913 241.373 770.8 239.553 772.573 237.78C774.347 235.913 776.213 234.98 778.173 234.98C779.48 234.98 780.46 235.4 781.113 236.24C781.767 237.08 782.093 237.967 782.093 238.9C782.093 240.86 781.207 242.727 779.433 244.5C777.753 246.273 775.887 247.16 773.833 247.16ZM752.413 290.14C748.587 290.14 745.973 289.347 744.573 287.76C743.267 286.08 742.613 284.213 742.613 282.16C742.613 280.48 742.893 278.893 743.453 277.4C744.013 275.813 744.48 274.693 744.853 274.04C745.413 273.107 746.16 272.033 747.093 270.82C748.12 269.607 749.24 268.3 750.453 266.9C748.587 268.487 746.813 270.027 745.133 271.52C743.547 273.013 742.24 274.133 741.213 274.88C740.933 275.16 740.653 275.3 740.373 275.3C740 275.3 739.813 275.067 739.813 274.6C739.813 273.853 740.327 273.107 741.353 272.36C743.78 270.307 746.113 268.067 748.353 265.64C750.687 263.213 752.88 260.973 754.933 258.92C756.987 256.773 758.807 255.28 760.393 254.44C762.073 253.507 763.427 252.9 764.453 252.62C765.48 252.34 766.32 252.2 766.973 252.2C768 252.2 768.747 252.387 769.213 252.76C769.68 253.04 769.773 253.367 769.493 253.74C767.907 255.327 766.32 257.38 764.733 259.9C763.24 262.327 761.84 264.893 760.533 267.6C759.227 270.307 758.153 272.873 757.313 275.3C756.567 277.727 756.193 279.78 756.193 281.46C756.193 283.793 757.127 284.96 758.993 284.96C760.767 284.96 763.053 284.167 765.853 282.58C768.747 280.9 771.733 278.8 774.813 276.28C777.987 273.76 780.927 271.287 783.633 268.86C784.007 268.487 784.333 268.3 784.613 268.3C785.08 268.3 785.313 268.533 785.313 269C785.407 269.467 785.313 269.793 785.033 269.98C781.953 272.873 778.453 275.907 774.533 279.08C770.707 282.16 766.833 284.773 762.913 286.92C759.087 289.067 755.587 290.14 752.413 290.14ZM982.712 322.06C980.379 322.06 977.859 321.453 975.152 320.24C972.539 319.12 970.346 317.393 968.572 315.06C966.892 312.82 966.146 310.067 966.332 306.8C966.426 304.84 966.612 302.88 966.892 300.92C967.266 299.053 968.012 296.767 969.132 294.06C970.346 291.353 972.212 287.853 974.732 283.56C977.346 279.173 980.939 273.62 985.512 266.9C990.179 260.18 996.106 251.78 1003.29 241.7C1006.75 236.94 1009.17 233.02 1010.57 229.94C1011.97 226.86 1012.67 224.433 1012.67 222.66C1012.67 221.167 1012.25 220.093 1011.41 219.44C1010.57 218.787 1009.5 218.46 1008.19 218.46C1006.33 218.46 1004.09 219.02 1001.47 220.14C998.952 221.26 996.526 222.707 994.192 224.48C989.806 227.747 985.326 231.48 980.752 235.68C976.179 239.787 971.746 244.033 967.452 248.42C963.159 252.807 959.146 257.053 955.412 261.16C952.332 266.107 949.439 270.633 946.732 274.74C944.026 278.753 942.066 281.647 940.852 283.42C940.479 284.073 939.872 284.54 939.032 284.82C938.286 285.1 937.539 285.24 936.792 285.24C935.486 285.24 934.319 284.913 933.292 284.26C932.266 283.513 932.032 282.627 932.592 281.6C932.592 281.6 933.152 280.62 934.272 278.66C935.392 276.7 936.839 274.087 938.612 270.82C940.479 267.553 942.439 263.96 944.492 260.04C946.639 256.12 948.692 252.247 950.652 248.42C952.612 244.5 954.292 240.907 955.692 237.64C957.186 234.373 958.166 231.807 958.632 229.94C959.192 227.513 959.472 225.273 959.472 223.22C959.472 221.167 959.099 219.533 958.352 218.32C957.606 217.013 956.299 216.36 954.432 216.36C953.219 216.36 951.679 216.733 949.812 217.48C947.946 218.227 945.752 219.393 943.232 220.98C938.939 223.78 934.086 227.467 928.672 232.04C923.352 236.52 917.799 241.56 912.012 247.16C906.319 252.667 900.626 258.36 894.932 264.24C889.332 270.027 884.106 275.673 879.252 281.18C878.972 281.46 878.646 281.6 878.272 281.6C874.726 286.173 872.066 289.16 870.292 290.56C868.612 291.96 867.772 292.24 867.772 291.4C867.772 289.533 870.339 285.38 875.472 278.94C879.486 273.993 883.779 268.767 888.352 263.26C893.019 257.66 897.359 252.107 901.372 246.6C905.479 241.093 908.746 235.96 911.172 231.2C913.599 226.44 914.812 222.427 914.812 219.16C914.812 214.773 912.992 211.74 909.352 210.06C905.806 208.38 901.279 207.54 895.772 207.54C891.386 207.54 886.672 207.96 881.632 208.8C876.686 209.547 871.739 210.527 866.792 211.74C861.939 212.86 857.459 214.073 853.352 215.38C849.246 216.593 845.932 217.62 843.412 218.46C839.306 219.86 835.526 221.353 832.072 222.94C828.619 224.527 825.866 226.16 823.812 227.84C821.852 229.427 820.872 231.06 820.872 232.74C820.872 234.327 821.946 235.867 824.092 237.36C824.279 237.453 824.372 237.593 824.372 237.78C824.372 237.967 824.139 238.06 823.672 238.06C823.206 238.06 822.739 237.92 822.272 237.64C819.566 235.773 818.212 233.067 818.212 229.52C818.212 226.907 819.099 224.153 820.872 221.26C822.646 218.367 825.399 215.893 829.132 213.84C833.892 211.133 839.212 208.707 845.092 206.56C850.972 204.32 857.039 202.453 863.292 200.96C869.546 199.373 875.706 198.207 881.772 197.46C887.932 196.62 893.626 196.2 898.852 196.2C905.759 196.2 911.172 196.9 915.092 198.3C919.106 199.7 921.952 201.613 923.632 204.04C925.312 206.467 926.152 209.173 926.152 212.16C926.152 216.173 924.939 220.42 922.512 224.9C920.179 229.38 917.566 233.393 914.672 236.94C912.059 240.113 908.699 244.08 904.592 248.84C900.579 253.6 896.612 258.407 892.692 263.26C898.386 257.287 904.172 251.453 910.052 245.76C915.932 240.067 921.626 234.887 927.132 230.22C932.639 225.553 937.586 221.773 941.972 218.88C946.732 215.8 950.886 213.607 954.432 212.3C958.072 210.9 961.152 210.2 963.672 210.2C967.219 210.2 969.739 211.273 971.232 213.42C972.819 215.567 973.612 218.227 973.612 221.4C973.612 224.76 972.819 228.4 971.232 232.32C970.206 234.84 968.852 237.733 967.172 241C965.492 244.173 963.626 247.487 961.572 250.94C966.426 245.9 971.559 240.86 976.972 235.82C982.479 230.78 987.799 226.347 992.932 222.52C997.412 219.253 1002.13 216.547 1007.07 214.4C1012.02 212.253 1016.22 211.18 1019.67 211.18C1021.73 211.18 1023.36 211.647 1024.57 212.58C1025.79 213.42 1026.39 214.82 1026.39 216.78C1026.39 218.46 1025.83 220.607 1024.71 223.22C1023.59 225.833 1021.82 228.96 1019.39 232.6C1009.87 246.693 1002.13 258.827 996.152 269C990.272 279.08 985.932 287.48 983.132 294.2C980.332 300.92 978.746 306.287 978.372 310.3C978.279 310.767 978.232 311.233 978.232 311.7C978.232 312.167 978.232 312.633 978.232 313.1C978.232 315.713 978.652 317.533 979.492 318.56C980.426 319.68 981.452 320.24 982.572 320.24C983.972 320.24 985.279 319.727 986.492 318.7C986.866 318.513 987.099 318.42 987.192 318.42C987.659 318.42 988.032 318.653 988.312 319.12C988.592 319.587 988.499 320.053 988.032 320.52C986.726 321.547 984.952 322.06 982.712 322.06ZM1011.58 290.14C1008.69 290.14 1006.45 289.253 1004.86 287.48C1003.28 285.613 1002.48 283.233 1002.48 280.34C1002.48 277.633 1003.18 274.647 1004.58 271.38C1006.08 268.113 1008.41 264.8 1011.58 261.44C1014.85 257.893 1018.91 255.047 1023.76 252.9C1028.62 250.66 1033.24 249.54 1037.62 249.54C1041.17 249.54 1044.2 250.333 1046.72 251.92C1049.24 253.413 1050.92 255.327 1051.76 257.66C1052.79 257.66 1054.05 257.94 1055.54 258.5C1057.13 259.06 1057.92 260.087 1057.92 261.58C1057.92 262.607 1057.41 263.773 1056.38 265.08C1055.73 266.013 1054.56 267.413 1052.88 269.28C1051.3 271.147 1049.8 273.153 1048.4 275.3C1047.28 276.98 1046.4 278.567 1045.74 280.06C1045.09 281.46 1044.76 282.673 1044.76 283.7C1044.76 285.1 1045.46 285.8 1046.86 285.8C1048.45 285.8 1050.83 284.913 1054 283.14C1057.46 281.18 1060.77 278.94 1063.94 276.42C1067.12 273.9 1069.59 271.893 1071.36 270.4C1071.83 270.027 1072.16 269.84 1072.34 269.84C1072.72 269.84 1072.9 270.073 1072.9 270.54C1072.9 271.1 1072.67 271.613 1072.2 272.08C1071.36 272.827 1069.73 274.227 1067.3 276.28C1064.88 278.333 1062.08 280.48 1058.9 282.72C1055.82 284.96 1052.79 286.78 1049.8 288.18C1048.31 288.833 1046.91 289.347 1045.6 289.72C1044.39 290 1043.27 290.14 1042.24 290.14C1039.72 290.14 1037.81 289.44 1036.5 288.04C1035.2 286.547 1034.54 284.633 1034.54 282.3C1034.54 281.367 1034.68 280.387 1034.96 279.36C1035.24 278.333 1035.57 277.307 1035.94 276.28L1036.92 273.9C1034.5 276.887 1032.07 279.407 1029.64 281.46C1027.22 283.42 1024.79 285.147 1022.36 286.64C1020.31 287.853 1018.35 288.74 1016.48 289.3C1014.71 289.86 1013.08 290.14 1011.58 290.14ZM1015.92 286.5C1017.6 286.5 1020.03 285.52 1023.2 283.56C1026.38 281.507 1030.06 278.38 1034.26 274.18C1034.82 273.62 1035.85 272.64 1037.34 271.24C1038.93 269.747 1040.61 268.113 1042.38 266.34C1044.16 264.473 1045.65 262.653 1046.86 260.88C1048.17 259.013 1048.82 257.473 1048.82 256.26C1048.82 254.487 1047.28 253.6 1044.2 253.6C1041.5 253.6 1038.23 254.673 1034.4 256.82C1030.67 258.873 1027.08 261.953 1023.62 266.06C1020.08 270.26 1017.46 273.9 1015.78 276.98C1014.2 279.967 1013.4 282.253 1013.4 283.84C1013.4 285.613 1014.24 286.5 1015.92 286.5ZM1078.44 291.54C1074.71 291.54 1071.44 290.84 1068.64 289.44C1065.75 287.947 1063.65 285.24 1062.34 281.32C1062.25 280.947 1062.39 280.713 1062.76 280.62C1063.04 280.527 1063.23 280.713 1063.32 281.18C1064.26 283.233 1065.47 284.68 1066.96 285.52C1068.46 286.36 1070.09 286.78 1071.86 286.78C1074.85 286.78 1077.46 285.893 1079.7 284.12C1082.04 282.347 1084.09 280.107 1085.86 277.4C1087.73 274.693 1089.36 271.94 1090.76 269.14C1092.26 266.247 1093.66 263.773 1094.96 261.72C1097.02 258.267 1099.44 255.14 1102.24 252.34C1105.14 249.54 1107.75 247.813 1110.08 247.16C1109.52 246.88 1108.82 246.74 1107.98 246.74C1105.65 246.74 1103.08 247.44 1100.28 248.84C1097.48 250.24 1094.64 252.06 1091.74 254.3C1088.94 256.54 1086.19 258.92 1083.48 261.44C1080.87 263.867 1078.44 266.153 1076.2 268.3C1074.06 270.353 1072.33 271.987 1071.02 273.2C1070.28 273.853 1069.72 274.18 1069.34 274.18C1068.97 274.18 1068.78 273.993 1068.78 273.62C1068.78 273.06 1069.02 272.547 1069.48 272.08C1072.28 269.653 1075.18 266.947 1078.16 263.96C1081.15 260.88 1084.18 257.94 1087.26 255.14C1090.34 252.247 1093.47 249.867 1096.64 248C1099.82 246.133 1103.04 245.2 1106.3 245.2C1106.68 245.2 1107 245.2 1107.28 245.2C1107.66 245.2 1108.03 245.247 1108.4 245.34C1109.43 245.433 1110.36 245.713 1111.2 246.18C1112.14 246.647 1112.42 246.973 1112.04 247.16C1109.9 248.093 1108.22 249.96 1107 252.76C1105.79 255.56 1104.67 258.827 1103.64 262.56C1102.62 266.293 1101.36 270.073 1099.86 273.9C1098.46 277.727 1096.41 281.133 1093.7 284.12C1095.01 283.653 1097.06 282.58 1099.86 280.9C1102.66 279.22 1105.74 277.167 1109.1 274.74C1112.46 272.22 1115.59 269.467 1118.48 266.48C1118.86 266.107 1119.23 265.92 1119.6 265.92C1120.07 265.92 1120.3 266.153 1120.3 266.62C1120.3 266.993 1120.12 267.367 1119.74 267.74C1117.22 270.167 1114.42 272.78 1111.34 275.58C1108.26 278.287 1104.9 280.853 1101.26 283.28C1097.72 285.707 1094.03 287.713 1090.2 289.3C1086.38 290.793 1082.46 291.54 1078.44 291.54ZM1121.37 291.54C1117.64 291.54 1114.37 290.84 1111.57 289.44C1108.68 287.947 1106.58 285.24 1105.27 281.32C1105.18 280.947 1105.32 280.713 1105.69 280.62C1105.97 280.527 1106.16 280.713 1106.25 281.18C1107.19 283.233 1108.4 284.68 1109.89 285.52C1111.39 286.36 1113.02 286.78 1114.79 286.78C1117.78 286.78 1120.39 285.893 1122.63 284.12C1124.97 282.347 1127.02 280.107 1128.79 277.4C1130.66 274.693 1132.29 271.94 1133.69 269.14C1135.19 266.247 1136.59 263.773 1137.89 261.72C1139.95 258.267 1142.37 255.14 1145.17 252.34C1148.07 249.54 1150.68 247.813 1153.01 247.16C1152.45 246.88 1151.75 246.74 1150.91 246.74C1148.58 246.74 1146.01 247.44 1143.21 248.84C1140.41 250.24 1137.57 252.06 1134.67 254.3C1131.87 256.54 1129.12 258.92 1126.41 261.44C1123.8 263.867 1121.37 266.153 1119.13 268.3C1116.99 270.353 1115.26 271.987 1113.95 273.2C1113.21 273.853 1112.65 274.18 1112.27 274.18C1111.9 274.18 1111.71 273.993 1111.71 273.62C1111.71 273.06 1111.95 272.547 1112.41 272.08C1115.21 269.653 1118.11 266.947 1121.09 263.96C1124.08 260.88 1127.11 257.94 1130.19 255.14C1133.27 252.247 1136.4 249.867 1139.57 248C1142.75 246.133 1145.97 245.2 1149.23 245.2C1149.61 245.2 1149.93 245.2 1150.21 245.2C1150.59 245.2 1150.96 245.247 1151.33 245.34C1152.36 245.433 1153.29 245.713 1154.13 246.18C1155.07 246.647 1155.35 246.973 1154.97 247.16C1152.83 248.093 1151.15 249.96 1149.93 252.76C1148.72 255.56 1147.6 258.827 1146.57 262.56C1145.55 266.293 1144.29 270.073 1142.79 273.9C1141.39 277.727 1139.34 281.133 1136.63 284.12C1137.94 283.653 1139.99 282.58 1142.79 280.9C1145.59 279.22 1148.67 277.167 1152.03 274.74C1155.39 272.22 1158.52 269.467 1161.41 266.48C1161.79 266.107 1162.16 265.92 1162.53 265.92C1163 265.92 1163.23 266.153 1163.23 266.62C1163.23 266.993 1163.05 267.367 1162.67 267.74C1160.15 270.167 1157.35 272.78 1154.27 275.58C1151.19 278.287 1147.83 280.853 1144.19 283.28C1140.65 285.707 1136.96 287.713 1133.13 289.3C1129.31 290.793 1125.39 291.54 1121.37 291.54ZM1164.02 290.14C1161.13 290.14 1158.89 289.253 1157.3 287.48C1155.72 285.613 1154.92 283.233 1154.92 280.34C1154.92 277.633 1155.62 274.647 1157.02 271.38C1158.52 268.113 1160.85 264.8 1164.02 261.44C1167.29 257.893 1171.35 255.047 1176.2 252.9C1181.06 250.66 1185.68 249.54 1190.06 249.54C1193.61 249.54 1196.64 250.333 1199.16 251.92C1201.68 253.413 1203.36 255.327 1204.2 257.66C1205.23 257.66 1206.49 257.94 1207.98 258.5C1209.57 259.06 1210.36 260.087 1210.36 261.58C1210.36 262.607 1209.85 263.773 1208.82 265.08C1208.17 266.013 1207 267.413 1205.32 269.28C1203.74 271.147 1202.24 273.153 1200.84 275.3C1199.72 276.98 1198.84 278.567 1198.18 280.06C1197.53 281.46 1197.2 282.673 1197.2 283.7C1197.2 285.1 1197.9 285.8 1199.3 285.8C1200.89 285.8 1203.27 284.913 1206.44 283.14C1209.9 281.18 1213.21 278.94 1216.38 276.42C1219.56 273.9 1222.03 271.893 1223.8 270.4C1224.27 270.027 1224.6 269.84 1224.78 269.84C1225.16 269.84 1225.34 270.073 1225.34 270.54C1225.34 271.1 1225.11 271.613 1224.64 272.08C1223.8 272.827 1222.17 274.227 1219.74 276.28C1217.32 278.333 1214.52 280.48 1211.34 282.72C1208.26 284.96 1205.23 286.78 1202.24 288.18C1200.75 288.833 1199.35 289.347 1198.04 289.72C1196.83 290 1195.71 290.14 1194.68 290.14C1192.16 290.14 1190.25 289.44 1188.94 288.04C1187.64 286.547 1186.98 284.633 1186.98 282.3C1186.98 281.367 1187.12 280.387 1187.4 279.36C1187.68 278.333 1188.01 277.307 1188.38 276.28L1189.36 273.9C1186.94 276.887 1184.51 279.407 1182.08 281.46C1179.66 283.42 1177.23 285.147 1174.8 286.64C1172.75 287.853 1170.79 288.74 1168.92 289.3C1167.15 289.86 1165.52 290.14 1164.02 290.14ZM1168.36 286.5C1170.04 286.5 1172.47 285.52 1175.64 283.56C1178.82 281.507 1182.5 278.38 1186.7 274.18C1187.26 273.62 1188.29 272.64 1189.78 271.24C1191.37 269.747 1193.05 268.113 1194.82 266.34C1196.6 264.473 1198.09 262.653 1199.3 260.88C1200.61 259.013 1201.26 257.473 1201.26 256.26C1201.26 254.487 1199.72 253.6 1196.64 253.6C1193.94 253.6 1190.67 254.673 1186.84 256.82C1183.11 258.873 1179.52 261.953 1176.06 266.06C1172.52 270.26 1169.9 273.9 1168.22 276.98C1166.64 279.967 1165.84 282.253 1165.84 283.84C1165.84 285.613 1166.68 286.5 1168.36 286.5ZM1210.45 327.38C1204.75 327.38 1200.04 326.727 1196.31 325.42C1192.57 324.113 1189.59 322.34 1187.35 320.1C1185.85 318.513 1184.45 316.413 1183.15 313.8C1181.84 311.28 1181.19 309.133 1181.19 307.36C1181.19 306.707 1181.33 306.38 1181.61 306.38C1182.26 306.38 1182.68 306.753 1182.87 307.5C1182.87 307.78 1183.19 308.853 1183.85 310.72C1184.41 312.587 1185.48 314.64 1187.07 316.88C1188.65 319.12 1190.99 321.08 1194.07 322.76C1197.15 324.44 1201.16 325.28 1206.11 325.28C1211.99 325.28 1217.26 323.88 1221.93 321.08C1226.59 318.373 1230.75 314.78 1234.39 310.3C1238.12 305.913 1241.53 301.107 1244.61 295.88C1247.69 290.653 1250.63 285.52 1253.43 280.48C1256.23 275.44 1259.07 271.007 1261.97 267.18C1260.75 268.487 1259.21 270.12 1257.35 272.08C1255.57 273.947 1253.66 275.86 1251.61 277.82C1249.55 279.78 1247.59 281.553 1245.73 283.14C1243.86 284.727 1242.32 285.893 1241.11 286.64C1239.05 287.853 1237.09 288.74 1235.23 289.3C1233.45 289.86 1231.82 290.14 1230.33 290.14C1227.43 290.14 1225.19 289.253 1223.61 287.48C1222.02 285.613 1221.23 283.233 1221.23 280.34C1221.23 277.633 1221.93 274.647 1223.33 271.38C1224.82 268.113 1227.15 264.8 1230.33 261.44C1233.59 257.893 1237.65 255.047 1242.51 252.9C1247.36 250.66 1251.98 249.54 1256.37 249.54C1257.95 249.54 1259.49 249.727 1260.99 250.1C1262.48 250.38 1263.83 250.893 1265.05 251.64C1266.73 252.667 1267.94 253.647 1268.69 254.58C1269.53 255.42 1270.13 256.447 1270.51 257.66C1271.07 257.66 1271.95 257.94 1273.17 258.5C1274.38 258.967 1275.5 259.573 1276.53 260.32C1277.55 260.973 1278.07 261.673 1278.07 262.42C1278.07 262.793 1277.69 263.213 1276.95 263.68C1275.08 264.613 1272.98 266.853 1270.65 270.4C1268.31 273.853 1265.7 278.007 1262.81 282.86C1260.01 287.62 1256.83 292.567 1253.29 297.7C1249.83 302.927 1245.96 307.78 1241.67 312.26C1237.37 316.74 1232.61 320.38 1227.39 323.18C1222.25 325.98 1216.61 327.38 1210.45 327.38ZM1234.25 286.5C1236.11 286.5 1238.4 285.567 1241.11 283.7C1243.16 282.3 1245.4 280.573 1247.83 278.52C1250.25 276.373 1252.63 274.133 1254.97 271.8C1257.3 269.467 1259.31 267.32 1260.99 265.36C1264.07 261.813 1265.61 258.92 1265.61 256.68C1265.61 254.813 1264.49 253.88 1262.25 253.88C1260.01 253.88 1256.93 254.953 1253.01 257.1C1250.77 258.313 1248.39 260.04 1245.87 262.28C1243.35 264.52 1240.97 266.947 1238.73 269.56C1236.58 272.173 1234.85 274.6 1233.55 276.84C1232.05 279.547 1231.31 281.74 1231.31 283.42C1231.31 285.473 1232.29 286.5 1234.25 286.5ZM1293.63 291.4C1289.53 291.4 1286.07 290.42 1283.27 288.46C1280.57 286.407 1279.21 283.467 1279.21 279.64C1279.21 275.533 1280.19 271.707 1282.15 268.16C1284.11 264.613 1286.73 261.533 1289.99 258.92C1293.26 256.213 1296.81 254.113 1300.63 252.62C1304.55 251.127 1308.43 250.38 1312.25 250.38C1316.08 250.38 1318.93 251.08 1320.79 252.48C1322.66 253.787 1323.59 255.42 1323.59 257.38C1323.59 259.247 1322.71 261.253 1320.93 263.4C1319.25 265.453 1316.78 267.273 1313.51 268.86C1311.46 269.793 1309.08 270.633 1306.37 271.38C1303.76 272.033 1301.47 272.36 1299.51 272.36C1298.02 272.36 1297.27 272.127 1297.27 271.66C1297.27 271.287 1297.93 271.1 1299.23 271.1C1300.45 271.1 1302.31 270.773 1304.83 270.12C1307.45 269.373 1309.97 268.393 1312.39 267.18C1315.1 265.687 1317.01 264.193 1318.13 262.7C1319.25 261.207 1319.81 259.853 1319.81 258.64C1319.81 257.52 1319.35 256.587 1318.41 255.84C1317.57 255.093 1316.36 254.72 1314.77 254.72C1313.28 254.72 1311.6 255.14 1309.73 255.98C1307.03 257.193 1304.23 259.2 1301.33 262C1298.53 264.707 1296.2 267.693 1294.33 270.96C1292.47 274.227 1291.53 277.353 1291.53 280.34C1291.53 282.393 1292.09 284.12 1293.21 285.52C1294.43 286.92 1296.2 287.62 1298.53 287.62C1300.96 287.62 1303.76 286.873 1306.93 285.38C1310.11 283.793 1313.33 281.88 1316.59 279.64C1319.86 277.307 1322.89 274.973 1325.69 272.64C1328.49 270.307 1330.73 268.347 1332.41 266.76C1332.97 266.2 1333.39 265.92 1333.67 265.92C1333.95 265.92 1334.09 266.153 1334.09 266.62C1334.09 267.273 1333.81 267.833 1333.25 268.3C1329.71 271.567 1325.83 274.973 1321.63 278.52C1317.53 282.067 1313.09 285.1 1308.33 287.62C1303.67 290.047 1298.77 291.307 1293.63 291.4Z" fill="#1A1A1A"/>
<path d="M285.956 76.9263C286.002 77.0152 286.012 77.1181 285.986 77.2145C285.959 77.3108 285.897 77.3936 285.812 77.446C285.727 77.4985 285.625 77.5169 285.527 77.4975C285.429 77.4781 285.342 77.4223 285.283 77.3414C280.577 71.7208 275.575 66.0941 270.279 60.4612C258.105 47.529 246.677 34.772 235.996 22.8729C234.669 21.397 233.36 20.1856 232.07 19.2386C231.879 19.0951 231.638 19.0332 231.401 19.0659C231.163 19.0987 230.946 19.2236 230.798 19.4138C226.534 24.8376 222.445 30.7134 218.531 37.0412C213.678 44.894 208.514 52.5654 203.039 60.0554C191.197 76.2622 182.064 93.5482 179.502 113.666C178.064 124.963 178.313 136.118 180.248 147.131C181.105 152.038 183.225 159.325 185.676 164.805C189.234 172.765 191.381 178.087 195.86 184.092C202.76 193.378 209.543 202.685 216.209 212.014C216.294 212.135 216.331 212.284 216.313 212.432C216.294 212.58 216.221 212.717 216.108 212.816L216.08 212.835C215.947 212.949 215.775 213.008 215.599 212.999C215.422 212.991 215.255 212.915 215.131 212.789C200.01 197.36 191 187.847 188.1 184.249C183.424 178.456 179.695 172.534 176.912 166.483C173.917 159.99 171.032 152.979 169.345 144.696C166.218 129.292 166.218 114.198 169.345 99.4147C172.156 86.1135 177.483 74.6572 184.865 63.5513C190.333 55.3295 195.562 47.8764 200.551 41.192C214.062 23.085 220.024 16.0839 227.25 4.27703C228.19 2.74582 229.188 1.3868 230.245 0.199962C230.304 0.133386 230.376 0.0809 230.458 0.0464077C230.54 0.0119154 230.628 -0.0036954 230.717 0.000736605C230.805 0.00516861 230.892 0.0295293 230.97 0.0720066C231.048 0.114484 231.115 0.173984 231.167 0.246082C237.882 9.667 246.398 20.945 256.713 34.0802C264.28 43.7286 272.703 55.0374 279.071 64.5936C281.916 68.8675 284.211 72.9784 285.956 76.9263Z" fill="#9D8854"/>
<path d="M260.988 101.158C261.009 101.236 261.002 101.318 260.97 101.391C260.938 101.464 260.882 101.524 260.811 101.561C260.741 101.597 260.66 101.609 260.582 101.593C260.504 101.577 260.434 101.534 260.384 101.472C255.381 95.2641 251.826 90.497 246.036 84.9815C242.988 82.0744 239.342 78.3389 235.096 73.7751C234.964 73.6332 234.801 73.5236 234.62 73.4546C234.44 73.3857 234.246 73.3591 234.053 73.3769C233.861 73.3947 233.675 73.4564 233.509 73.5574C233.344 73.6584 233.204 73.796 233.099 73.9598C226.951 83.531 222.114 89.9796 218.522 98.165C209.464 118.816 209.855 139.489 219.695 160.184C221.967 164.951 225.449 170.365 228.069 175.067C228.228 175.344 228.255 175.603 228.152 175.843C228.137 175.879 228.115 175.912 228.086 175.938C228.057 175.963 228.022 175.982 227.985 175.992C227.947 176.002 227.908 176.003 227.87 175.994C227.832 175.986 227.797 175.969 227.767 175.945C217.872 168.101 210.121 159.371 205.274 147.555C199.026 132.305 198.329 116.741 203.185 100.863C205.207 94.2602 208.85 87.2357 214.115 79.7894C218.904 73.0206 224.78 65.2448 231.743 56.4619C232.152 55.9446 232.617 55.4888 233.136 55.0946C233.185 55.0575 233.241 55.0304 233.301 55.015C233.361 54.9995 233.422 54.996 233.483 55.0046C233.543 55.0132 233.601 55.0337 233.653 55.065C233.705 55.0963 233.751 55.1378 233.786 55.187C240.389 64.0869 246.479 72.8297 252.055 81.4154C256.545 88.3259 259.092 93.8598 260.988 101.158Z" fill="#C4AA69"/>
<path d="M236.808 223.896C236.741 223.951 236.661 223.986 236.575 223.997C236.489 224.007 236.402 223.993 236.324 223.955C236.245 223.917 236.178 223.858 236.131 223.783C236.083 223.709 236.057 223.622 236.054 223.534C235.895 211.348 236.085 197.842 236.624 183.014C237.053 171.249 238.048 162.136 239.61 155.675C245.044 133.223 256.867 114.574 275.078 99.7273C281.859 94.207 289.223 89.5315 297.168 85.7008C302.062 83.3429 308.301 81.3038 315.885 79.5833C340.813 73.93 364.354 71.3772 390.367 67.2371C392.432 66.9091 394.401 66.9214 396.276 67.2742C396.421 67.3015 396.556 67.371 396.665 67.4745C396.774 67.578 396.852 67.7114 396.891 67.859C397.069 68.5893 397.029 69.8208 396.772 71.5536C394.796 85.0417 392.168 106.782 389.614 123.213C388.695 129.136 387.543 136.819 386.159 146.263C386 147.358 385.556 148.317 384.827 149.14C384.772 149.198 384.701 149.237 384.624 149.254C384.547 149.271 384.466 149.264 384.393 149.234C384.32 149.204 384.257 149.152 384.214 149.086C384.17 149.02 384.146 148.942 384.147 148.862L386.232 80.1589C386.237 80.0267 386.213 79.8952 386.16 79.7738C386.108 79.6524 386.029 79.5443 385.93 79.4572C385.83 79.3701 385.713 79.3062 385.585 79.2703C385.458 79.2343 385.325 79.2271 385.194 79.2492C366.256 82.6189 347.429 86.462 328.501 89.8967C312.329 92.8208 296.313 99.0218 283.357 109.242C278.353 113.184 273.136 118.197 267.709 124.281C262.288 130.364 258.086 136.253 255.102 141.946C252.248 147.392 249.693 153.776 247.439 161.097C246.373 164.569 245.185 171.336 243.874 181.398C242.398 192.699 240.352 206.351 237.736 222.355C237.635 222.957 237.314 223.501 236.836 223.877L236.808 223.896Z" fill="#9D8854"/>
<path d="M159.537 88.3828C151.944 87.504 144.645 87.0032 137.641 86.8803C131.245 86.7697 125.264 86.5884 119.698 86.3364C101.659 85.5252 89.9029 84.9629 84.4288 84.6495C82.7208 84.5512 81.0189 84.5789 79.3232 84.7325C79.1927 84.7439 79.0661 84.783 78.9519 84.8471C78.8377 84.9113 78.7385 84.9991 78.6609 85.1046C78.5833 85.2102 78.5291 85.3311 78.5018 85.4592C78.4746 85.5874 78.475 85.7199 78.503 85.8479C83.0095 106.976 86.53 127.688 90.3453 146.733C92.8827 159.441 97.3493 170.789 103.745 180.775C116.122 200.133 133.918 215.195 155.971 222.708C161.113 224.453 168.302 225.998 177.536 227.344C193.498 229.676 199.451 230.331 209.128 231.981C212.267 232.516 215.514 232.909 218.869 233.161C219.876 233.241 220.841 233.551 221.762 234.092C221.853 234.142 221.924 234.222 221.964 234.317C222.004 234.412 222.011 234.519 221.984 234.62C221.956 234.72 221.896 234.81 221.813 234.875C221.73 234.939 221.628 234.975 221.523 234.977C203.171 235.106 185.357 234.697 168.08 233.751C164.449 233.554 158.161 232.294 149.216 229.971C141.18 227.888 133.319 224.379 125.633 219.444C109.88 209.341 97.5275 196.363 88.5759 180.508C85.5654 175.173 82.8867 168.831 80.5397 161.482C78.9177 156.412 78.291 151.747 77.2312 146.622C75.5447 138.566 74.5587 129.984 73.4159 123.273C70.7249 107.501 68.8356 91.3326 66.1354 76.6022C65.9941 75.8279 65.9634 74.9061 66.0433 73.8368C66.0521 73.7145 66.0861 73.5953 66.143 73.4865C66.1999 73.3778 66.2786 73.2816 66.3743 73.204C66.47 73.1264 66.5807 73.0689 66.6997 73.0351C66.8186 73.0012 66.9433 72.9917 67.0662 73.0072C77.3449 74.3284 87.4577 75.5575 97.4046 76.6944C103.008 77.3335 111.09 78.4335 121.651 79.9944C131.709 81.4878 139.76 82.7107 145.806 83.6632C149.185 84.204 153.778 85.7157 159.584 88.1985C159.604 88.2098 159.62 88.228 159.629 88.2497C159.639 88.2714 159.641 88.2953 159.636 88.3173C159.63 88.3392 159.617 88.3578 159.599 88.3698C159.581 88.3818 159.56 88.3864 159.537 88.3828Z" fill="#9D8854"/>
<path d="M348.112 122.279C348.107 122.171 348.081 122.065 348.035 121.968C347.988 121.871 347.922 121.784 347.842 121.714C347.761 121.643 347.667 121.59 347.565 121.558C347.463 121.526 347.356 121.515 347.249 121.527C340.162 122.344 333.395 123.427 326.949 124.777C313.868 127.516 300.842 134.017 291.036 143.6C287.798 146.757 283.752 151.279 282.468 151.669C282.404 151.688 282.336 151.689 282.271 151.671C282.207 151.653 282.149 151.618 282.102 151.57C282.056 151.521 282.024 151.46 282.009 151.395C281.994 151.329 281.998 151.26 282.019 151.196C285.676 140.121 291.99 131.07 300.961 124.043C307.811 118.676 315.268 114.838 323.335 112.529C326.417 111.643 332.062 110.507 340.269 109.121C348.592 107.721 354.264 106.774 357.285 106.279C358.202 106.13 359.45 106.038 361.028 106C361.154 105.997 361.28 106.019 361.398 106.066C361.515 106.113 361.623 106.183 361.714 106.273C361.804 106.363 361.876 106.471 361.925 106.59C361.975 106.709 362 106.837 362 106.966C361.982 111.507 360.707 118.295 359.147 129.011C357.358 141.306 354.799 151.614 348.873 161.633C348.158 162.847 347.289 163.94 346.268 164.911C346.212 164.96 346.143 164.991 346.07 164.998C345.996 165.006 345.922 164.99 345.858 164.953C345.794 164.917 345.742 164.861 345.711 164.794C345.679 164.726 345.668 164.651 345.681 164.577C348.433 150.704 348.625 135.902 348.112 122.279Z" fill="#C4AA69"/>
<path d="M158.596 122.786C153.083 122.11 146.052 121.009 139.638 121.148C133.497 121.277 127.045 121.249 120.284 121.064C120.172 121.062 120.061 121.084 119.958 121.129C119.855 121.174 119.763 121.242 119.688 121.326C119.614 121.411 119.559 121.511 119.527 121.619C119.494 121.727 119.486 121.841 119.502 121.953C120.447 128.782 121.892 135.726 123.837 142.784C130.684 167.585 145.896 184.06 169.473 192.21C175.786 194.394 183.903 195.384 189.425 197.087C190.885 197.537 192.02 198.024 192.83 198.549C192.895 198.592 192.945 198.654 192.974 198.726C193.002 198.799 193.008 198.878 192.99 198.954C192.971 199.03 192.931 199.099 192.872 199.15C192.814 199.202 192.742 199.234 192.664 199.243C184.186 200.224 175.771 200.252 167.421 199.326C160.243 198.536 152.908 196.044 145.417 191.849C128.846 182.57 117.79 168.788 112.25 150.502C110.747 145.541 109.624 139.899 108.882 133.576C108.029 126.302 107.072 118.597 106.011 110.459C105.988 110.281 106.002 110.099 106.053 109.927C106.104 109.754 106.19 109.594 106.306 109.457C106.422 109.32 106.566 109.209 106.728 109.132C106.889 109.054 107.065 109.011 107.244 109.006C108.281 108.975 109.41 109.059 110.631 109.256C116.465 110.212 124.781 111.671 135.579 113.633C142.77 114.941 148.411 116.524 152.503 118.381C154.847 119.442 156.961 120.707 158.844 122.175C158.903 122.221 158.945 122.285 158.965 122.357C158.984 122.429 158.979 122.506 158.951 122.575C158.923 122.645 158.873 122.703 158.808 122.741C158.744 122.779 158.67 122.794 158.596 122.786Z" fill="#C4AA69"/>
<path d="M273.915 275.728L273.925 275.719C273.982 275.627 274.072 275.56 274.176 275.531C274.28 275.502 274.391 275.513 274.488 275.562C276.045 276.333 279.212 278.253 283.989 281.322C287.461 283.55 292.706 286.26 299.723 289.452C304.513 291.631 310.117 293.363 316.538 294.647C343.149 299.962 370.546 296.11 393.103 280.618C398.428 276.963 402.826 273.654 406.298 270.691C424.292 255.363 438.711 242.908 449.558 233.327C449.746 233.161 449.863 232.927 449.882 232.676C449.901 232.425 449.821 232.177 449.66 231.984C449.007 231.2 448.41 230.62 447.868 230.243C432.707 219.545 417.939 208.964 403.565 198.5C389.161 188.018 373.168 181.656 355.587 179.415C351.592 178.909 346.867 178.721 341.413 178.85C330.379 179.119 320.933 180.23 311.099 184.017C299.114 188.638 290.905 193.388 280.785 201.296C270.831 209.066 266.695 212.492 258.569 218.289C255.743 220.307 252.847 222.459 249.88 224.743C249.394 225.119 248.855 225.339 248.264 225.4C248.217 225.405 248.17 225.396 248.128 225.374C248.087 225.352 248.052 225.318 248.03 225.276C248.007 225.235 247.997 225.188 248.001 225.141C248.005 225.093 248.023 225.048 248.052 225.011C248.963 223.832 249.563 223.11 249.852 222.845C271.527 202.849 282.386 192.83 282.429 192.787C288.812 187.033 295.728 182.397 303.177 178.878C313.417 174.035 323.038 170.461 333.528 169.322C339.899 168.63 343.3 168.238 343.731 168.146C344.313 168.017 344.91 167.973 345.504 168.016C347.043 168.115 352.503 168.457 361.884 169.044C373.537 169.775 386.945 174.73 397.96 180.406C401.894 182.437 407.443 185.956 414.609 190.962C421.448 195.747 440.463 209.053 471.654 230.882C471.75 230.949 471.83 231.035 471.889 231.136C471.948 231.237 471.985 231.349 471.996 231.466C472.008 231.582 471.994 231.699 471.955 231.81C471.917 231.92 471.855 232.021 471.774 232.105C471.146 232.765 470.623 233.271 470.204 233.623C458.391 243.457 448.487 251.751 440.49 258.505C431.839 265.82 421.792 273.497 413.048 280.729C394.387 296.156 370.582 305.083 346.187 304.999C326.027 304.932 307.809 299.789 291.533 289.572C285.947 286.053 279.806 280.701 273.998 276.173C273.933 276.122 273.889 276.048 273.873 275.966C273.858 275.885 273.873 275.8 273.915 275.728Z" fill="#9D8854"/>
<path d="M79.7944 183.014C79.8267 183.017 79.8572 183.03 79.8819 183.051C79.9066 183.072 79.9242 183.1 79.9323 183.131C79.9404 183.162 79.9386 183.195 79.9271 183.226C79.9157 183.256 79.8952 183.282 79.8683 183.3C74.7353 186.741 69.858 190.634 65.2364 194.98C52.8566 206.602 38.0613 220.212 20.8505 235.81C20.0001 236.58 19.1774 237.405 18.3825 238.285C18.2867 238.391 18.2138 238.516 18.1686 238.651C18.1233 238.787 18.1067 238.93 18.1197 239.072C18.1328 239.215 18.1752 239.353 18.2443 239.478C18.3133 239.603 18.4076 239.712 18.5212 239.799C20.9521 241.683 24.2705 243.548 26.8401 245.358C45.8872 258.808 62.0197 269.774 75.2375 278.256C76.55 279.094 80.1672 280.912 86.089 283.713C98.3455 289.503 111.508 291.562 126.01 291.866C148.222 292.328 168.511 284.923 186.091 271.913C205.785 257.337 217.469 248.746 221.142 246.143C223.187 244.69 224.669 243.739 225.588 243.289C225.644 243.258 225.709 243.247 225.772 243.259C225.836 243.27 225.893 243.303 225.935 243.353C225.976 243.402 225.999 243.464 226 243.528C226.001 243.592 225.979 243.655 225.939 243.705C225.236 244.641 224.7 245.284 224.33 245.635C220.994 248.737 217.832 252.366 214.625 255.025C211.676 257.481 209.282 260.344 206.454 262.975C195.294 273.372 189.068 279.124 187.774 280.232C172.245 293.602 153.731 301.506 133.405 303.464C112.676 305.464 93.0153 301.869 74.4241 292.679C69.3034 290.143 62.4942 285.775 53.9966 279.577C38.1291 267.998 22.4126 256.41 6.84701 244.813C6.29858 244.407 4.09253 242.932 0.228873 240.39C0.161649 240.345 0.105967 240.285 0.0663048 240.214C0.0266424 240.144 0.00410685 240.065 0.000510523 239.984C-0.0030858 239.903 0.0123575 239.823 0.0455984 239.749C0.0788392 239.675 0.12895 239.61 0.1919 239.559C21.1247 222.834 42.0328 207.045 62.9163 192.192C68.1726 188.455 73.5367 185.433 79.0087 183.125C79.2675 183.014 79.5294 182.977 79.7944 183.014Z" fill="#9D8854"/>
<path d="M259.002 259.056C258.965 258.678 259.371 258.036 260.22 257.132C266.438 250.493 273.827 242.562 280.709 236.667C285.248 232.772 289.132 228.671 293.781 225.082C310.866 211.907 329.233 201.141 351.069 201.001C362.189 200.933 372.668 203.595 382.509 208.988C385.264 210.494 391.026 214.393 399.796 220.685C406.371 225.402 412.004 229.527 416.697 233.06C416.78 233.123 416.849 233.203 416.901 233.295C416.952 233.386 416.984 233.487 416.996 233.592C417.007 233.696 416.997 233.802 416.966 233.902C416.935 234.003 416.885 234.096 416.817 234.175C416.214 234.895 415.639 235.465 415.092 235.886C409.372 240.312 401.146 246.892 390.415 255.625C385.073 259.967 377.702 264.179 370.802 266.68C350.673 273.979 326.595 272.24 308.67 259.846C308.209 259.53 307.917 259.227 307.794 258.935C307.76 258.854 307.75 258.764 307.765 258.677C307.78 258.59 307.82 258.509 307.879 258.443C307.938 258.378 308.014 258.331 308.099 258.308C308.184 258.284 308.273 258.286 308.357 258.312C312.822 259.8 316.65 261.399 321.207 262.422C341.66 267.034 364.612 262.329 380.857 248.54C384.996 245.032 389.929 240.622 395.654 235.31C395.733 235.237 395.795 235.147 395.837 235.047C395.878 234.947 395.897 234.84 395.892 234.732C395.888 234.624 395.86 234.518 395.811 234.422C395.762 234.326 395.693 234.242 395.608 234.175C379.261 221.456 362.075 210.485 340.396 214.297C320.645 217.765 303.412 228.941 287.065 240.042C278.993 245.519 270.275 252.362 263.181 257.104C261.619 258.151 260.423 258.907 259.593 259.372C259.535 259.405 259.469 259.423 259.403 259.424C259.336 259.425 259.27 259.409 259.212 259.377C259.153 259.346 259.103 259.3 259.066 259.244C259.03 259.188 259.008 259.123 259.002 259.056Z" fill="#C4AA69"/>
<path d="M99.9906 210.014C100.021 210.019 100.049 210.032 100.071 210.052C100.094 210.073 100.11 210.099 100.118 210.129C100.126 210.158 100.125 210.189 100.115 210.218C100.106 210.247 100.088 210.273 100.065 210.292C95.2931 213.555 89.0667 218.477 84.6007 223.25C83.0318 224.931 78.921 229.093 72.2684 235.736C72.1302 235.874 72.0244 236.041 71.9587 236.225C71.893 236.409 71.869 236.605 71.8885 236.799C71.9081 236.994 71.9706 237.181 72.0715 237.348C72.1725 237.516 72.3094 237.658 72.4723 237.766C78.7172 241.863 86.4631 247.647 94.2461 251.29C100.584 254.256 105.995 256.554 112.471 257.62C129.05 260.358 144.693 258.096 159.401 250.835C160.976 250.057 164.342 247.996 169.5 244.653C173.435 242.107 176.804 240.049 179.609 238.48C179.661 238.447 179.723 238.435 179.783 238.445C179.843 238.455 179.897 238.486 179.937 238.533C179.977 238.581 179.999 238.641 180 238.704C180.001 238.767 179.98 238.829 179.942 238.878C173.308 247.313 165.534 256.406 156.287 261.643C146.429 267.23 136.382 270.307 126.147 270.875C111.786 271.673 98.4587 268.645 86.1666 261.792C82.2566 259.616 76.8888 255.77 70.0633 250.251C65.5417 246.606 60.2882 242.589 54.3027 238.201C54.2089 238.133 54.1326 238.043 54.08 237.939C54.0274 237.835 54 237.72 54 237.604C54 237.487 54.0274 237.372 54.08 237.269C54.1326 237.165 54.2089 237.075 54.3027 237.006C60.2079 232.748 68.9699 226.606 80.5888 218.579C85.6724 215.069 91.485 212.297 98.0264 210.264C98.7243 210.048 99.3791 209.964 99.9906 210.014Z" fill="#C4AA69"/>
</svg>
