<svg width="1790" height="1528" viewBox="0 0 1790 1528" fill="none" xmlns="http://www.w3.org/2000/svg">
<path d="M873.097 1028C815.447 1027.9 758.385 1014.51 705.168 988.582C651.952 962.659 603.623 924.714 562.942 876.914C522.261 829.114 490.024 772.395 468.072 709.996C446.12 647.596 434.882 580.738 435.001 513.238C435.24 376.917 481.722 246.26 564.219 150.009C646.717 53.7584 758.473 -0.201276 874.903 0.000564214C932.553 0.100549 989.615 13.4946 1042.83 39.4178C1096.05 65.3411 1144.38 103.286 1185.06 151.086C1225.74 198.886 1257.98 255.605 1279.93 318.004C1301.88 380.404 1313.12 447.262 1313 514.762C1312.76 651.083 1266.28 781.74 1183.78 877.991C1101.28 974.242 989.527 1028.2 873.097 1028ZM872.915 960.949C981.709 961.138 1086.14 910.825 1163.22 821.078C1240.31 731.332 1283.74 609.504 1283.96 482.395C1284.19 355.286 1241.18 233.308 1164.41 143.295C1087.64 53.2819 983.392 2.60697 874.598 2.41821C765.804 2.22957 661.378 52.5425 584.291 142.289C507.204 232.035 463.772 353.863 463.549 480.972C463.325 608.081 506.329 730.059 583.101 820.072C659.872 910.085 764.121 960.76 872.915 960.949Z" fill="#C4AB69"/>
<path d="M688.597 514.261C684.169 482.512 680.868 452.862 688.839 424.91C690.663 418.608 696.057 412.361 705.02 406.167C718.921 396.634 725.227 380.288 723.939 357.129C720.021 286.358 738.028 220.543 777.959 159.683C799.373 126.964 829.402 95.5373 848.24 57.7285C848.688 56.8099 849.409 56.0582 850.305 55.577C851.201 55.0958 852.228 54.9087 853.243 55.0416C854.259 55.1746 855.213 55.6209 855.976 56.3191C856.738 57.0174 857.27 57.9332 857.499 58.9403C866.837 102.647 830.61 146.757 804.204 181.576C801.156 185.601 798.614 189.969 796.636 194.583C774.094 247.796 771.894 303.216 790.034 360.845C790.338 361.802 790.86 362.674 791.559 363.394C792.257 364.113 793.114 364.659 794.059 364.988C795.004 365.317 796.013 365.421 797.006 365.291C797.998 365.161 798.947 364.8 799.776 364.238C817.111 352.497 828.731 336.447 834.635 316.088C837.104 307.471 841.424 297.211 847.596 285.308C847.873 284.749 848.305 284.282 848.84 283.964C849.376 283.646 849.992 283.49 850.613 283.516C851.235 283.541 851.836 283.747 852.343 284.108C852.851 284.469 853.243 284.97 853.473 285.551C866.918 319.239 845.423 360.845 823.364 392.595C814.938 404.659 797.844 420.332 772.082 439.613C745.246 459.649 719.35 485.043 694.393 515.796C693.992 516.284 693.459 516.647 692.859 516.841C692.259 517.035 691.616 517.052 691.006 516.89C690.396 516.729 689.845 516.395 689.418 515.929C688.991 515.464 688.706 514.885 688.597 514.261Z" fill="#C4AB69"/>
<path d="M954.589 933.668C954.253 934.385 953.711 934.988 953.031 935.402C952.351 935.816 951.562 936.024 950.764 935.998C949.965 935.972 949.192 935.714 948.541 935.257C947.889 934.8 947.388 934.163 947.1 933.426C920.158 867.981 884.344 805.836 840.879 747.958C788.867 678.649 757.449 573.599 799.612 490.927C800.146 489.867 800.975 488.978 802 488.364C803.025 487.749 804.203 487.437 805.394 487.462C806.585 487.487 807.74 487.85 808.72 488.507C809.7 489.164 810.466 490.088 810.926 491.168C815.24 500.909 817.274 511.856 815.972 523.931C811.658 564.663 823.135 618.839 857.891 645.725C858.498 646.184 859.193 646.516 859.934 646.701C860.675 646.885 861.446 646.918 862.2 646.798C862.955 646.677 863.676 646.406 864.321 646C864.965 645.594 865.519 645.062 865.949 644.437C930.74 549.61 965.658 427.092 923.821 314.313C906.321 267.141 871.972 167.082 909.496 125.464C910.459 124.411 911.706 123.65 913.09 123.271C914.475 122.892 915.939 122.911 917.313 123.324C918.687 123.738 919.914 124.53 920.851 125.607C921.787 126.684 922.394 128.003 922.6 129.409C929.763 182.779 946.693 214.576 973.472 288.715C1003.1 370.77 1014.2 455.561 1006.76 543.09C1003.1 586.559 988.286 623.427 972.17 677.844C965.821 699.364 965.659 720.267 971.682 740.552C975.1 752.064 985.438 758.02 992.926 766.875C995.1 769.447 996.434 772.59 996.752 775.891C1001.72 829.422 977.217 885.61 954.589 933.668Z" fill="#C4AB69"/>
<path d="M875.752 1179.5L909.589 1168.15C909.978 1168.01 910.395 1167.97 910.806 1168.02C911.216 1168.08 911.607 1168.23 911.943 1168.47C912.279 1168.71 912.552 1169.03 912.736 1169.4C912.92 1169.76 913.01 1170.17 912.999 1170.58L911.6 1424.88C911.593 1425.45 911.39 1426 911.024 1426.44C910.659 1426.89 910.152 1427.19 909.589 1427.31L892.54 1430.95C892.166 1431.02 891.779 1431.02 891.407 1430.93C891.036 1430.84 890.691 1430.66 890.396 1430.42C890.102 1430.18 889.867 1429.88 889.708 1429.53C889.549 1429.19 889.471 1428.81 889.479 1428.43L888.605 1191.54C888.615 1191.05 888.48 1190.57 888.216 1190.15C887.951 1189.73 887.57 1189.41 887.118 1189.2L875.49 1184.18C875.024 1183.97 874.633 1183.63 874.367 1183.19C874.102 1182.76 873.976 1182.26 874.004 1181.75C874.032 1181.24 874.214 1180.76 874.526 1180.36C874.838 1179.96 875.266 1179.66 875.752 1179.5Z" fill="#C4AB69"/>
<path d="M3.73091 1426.87C2.75146 1426.57 1.88027 1425.99 1.224 1425.2C0.567727 1424.41 0.154883 1423.44 0.0357685 1422.42C-0.0833461 1421.4 0.0965079 1420.36 0.553387 1419.44C1.01027 1418.52 1.72427 1417.76 2.60818 1417.24L8.4808 1413.85C10.1074 1412.9 11.922 1412.32 13.8002 1412.14C15.6784 1411.96 17.5758 1412.19 19.3622 1412.81C42.7373 1420.85 58.9157 1423.11 67.8972 1419.58C104.773 1405.18 100.887 1363.27 74.547 1340.45C46.2205 1315.89 17.376 1297.06 9.43077 1270.6C8.11973 1266.25 7.70829 1261.67 8.22173 1257.15C14.3534 1206.22 64.9609 1191.73 108.487 1200.32C109.433 1200.5 110.32 1200.92 111.069 1201.53C111.818 1202.14 112.406 1202.92 112.781 1203.81C113.157 1204.7 113.308 1205.67 113.222 1206.64C113.136 1207.6 112.815 1208.53 112.287 1209.34L111.164 1210.99C109.83 1213.07 107.822 1214.61 105.487 1215.35C103.153 1216.1 100.64 1216 98.3827 1215.07C77.397 1206.65 37.5844 1201.71 29.8983 1231.47C18.8441 1274.16 60.2975 1300.79 95.0146 1324.92C98.1017 1327.1 100.816 1329.8 103.046 1332.9C124.867 1363.21 121.096 1389.91 91.7329 1412.99C67.2639 1432.25 37.9299 1436.87 3.73091 1426.87Z" fill="#C4AB69"/>
<path d="M1357.79 1425.83C1356.8 1425.53 1355.91 1424.95 1355.24 1424.17C1354.58 1423.38 1354.16 1422.42 1354.04 1421.4C1353.92 1420.38 1354.1 1419.35 1354.56 1418.43C1355.03 1417.52 1355.75 1416.75 1356.65 1416.24L1362.62 1412.87C1364.28 1411.93 1366.12 1411.36 1368.03 1411.2C1369.94 1411.04 1371.86 1411.28 1373.67 1411.92C1397.43 1419.92 1413.86 1422.2 1422.99 1418.74C1460.55 1404.48 1456.69 1362.65 1429.92 1339.93C1401.23 1315.38 1371.92 1296.54 1363.93 1270.18C1362.6 1265.85 1362.18 1261.29 1362.7 1256.79C1369.02 1206.06 1420.53 1191.71 1464.76 1200.35C1465.71 1200.55 1466.6 1200.97 1467.36 1201.58C1468.11 1202.19 1468.69 1202.98 1469.06 1203.86C1469.44 1204.75 1469.58 1205.71 1469.49 1206.67C1469.4 1207.62 1469.07 1208.54 1468.53 1209.34L1467.39 1210.98C1466.04 1213.05 1464 1214.59 1461.62 1215.33C1459.25 1216.07 1456.7 1215.97 1454.4 1215.05C1433.08 1206.66 1392.63 1201.65 1384.82 1231.21C1373.5 1273.73 1415.53 1300.34 1450.81 1324.46C1453.91 1326.64 1456.64 1329.32 1458.88 1332.41C1480.99 1362.65 1477.13 1389.24 1447.3 1412.17C1422.38 1431.3 1392.54 1435.85 1357.79 1425.83Z" fill="#C4AB69"/>
<path d="M162.292 1223.99C162.035 1224.02 161.776 1223.99 161.53 1223.91C161.284 1223.82 161.056 1223.69 160.858 1223.52C160.661 1223.34 160.498 1223.13 160.379 1222.89C160.261 1222.65 160.189 1222.38 160.167 1222.11L160.082 1221.13C159.868 1218.86 160.073 1216.57 160.688 1214.39C161.302 1212.21 162.313 1210.18 163.662 1208.42C165.012 1206.66 166.674 1205.2 168.553 1204.13C170.433 1203.06 172.493 1202.39 174.615 1202.17L176.145 1202.08C180.423 1201.64 184.697 1203.03 188.026 1205.95C191.356 1208.86 193.471 1213.07 193.907 1217.64L193.992 1218.63C194.015 1218.9 193.988 1219.17 193.91 1219.43C193.833 1219.69 193.708 1219.93 193.542 1220.13C193.376 1220.34 193.173 1220.51 192.944 1220.64C192.715 1220.76 192.464 1220.84 192.207 1220.86L162.292 1223.99Z" fill="#C4AB69"/>
<path d="M1190.5 1222C1190.32 1222.01 1190.14 1221.98 1189.96 1221.92C1189.79 1221.86 1189.62 1221.77 1189.49 1221.65C1189.35 1221.53 1189.24 1221.38 1189.15 1221.21C1189.07 1221.05 1189.03 1220.87 1189.01 1220.68V1220.24C1188.83 1215.63 1190.48 1211.14 1193.62 1207.74C1196.76 1204.34 1201.12 1202.31 1205.75 1202.11L1207.68 1202.02C1209.98 1201.91 1212.28 1202.26 1214.45 1203.04C1216.62 1203.82 1218.61 1205.02 1220.31 1206.56C1222.01 1208.11 1223.39 1209.97 1224.37 1212.05C1225.34 1214.13 1225.9 1216.38 1226 1218.67V1219.11C1226.01 1219.3 1225.98 1219.49 1225.92 1219.67C1225.85 1219.85 1225.75 1220.01 1225.62 1220.15C1225.49 1220.29 1225.33 1220.4 1225.15 1220.48C1224.98 1220.56 1224.79 1220.6 1224.6 1220.6L1190.5 1222Z" fill="#C4AB69"/>
<path d="M788.5 1206.87C812.296 1206.78 843.126 1201.07 865.185 1210.07C865.803 1210.3 866.32 1210.74 866.643 1211.31C866.966 1211.88 867.075 1212.55 866.949 1213.2C866.824 1213.84 866.473 1214.42 865.959 1214.83C865.445 1215.24 864.802 1215.46 864.143 1215.44H810.298C807.811 1215.44 805.425 1216.43 803.666 1218.18C801.907 1219.93 800.919 1222.31 800.919 1224.79V1423.89C800.922 1425.14 800.448 1426.35 799.594 1427.26C798.739 1428.18 797.568 1428.74 796.316 1428.83C794.926 1428.94 792.466 1429 788.934 1429C785.345 1429 782.855 1428.94 781.465 1428.83C780.214 1428.74 779.042 1428.18 778.187 1427.26C777.333 1426.35 776.859 1425.14 776.863 1423.89L776.168 1224.88C776.168 1223.64 775.922 1222.42 775.446 1221.28C774.969 1220.14 774.27 1219.11 773.39 1218.24C772.51 1217.37 771.466 1216.68 770.318 1216.21C769.17 1215.75 767.941 1215.52 766.702 1215.53L712.857 1215.7C712.199 1215.72 711.555 1215.5 711.041 1215.09C710.527 1214.68 710.176 1214.1 710.051 1213.46C709.925 1212.81 710.034 1212.14 710.357 1211.57C710.68 1211 711.197 1210.56 711.815 1210.33C733.874 1201.24 764.704 1206.87 788.5 1206.87Z" fill="#C4AB69"/>
<path d="M344.681 1423.13C333.073 1427.78 323.688 1430.39 316.527 1430.97C315.022 1431.08 313.509 1430.89 312.084 1430.4C310.658 1429.91 309.35 1429.13 308.243 1428.11C307.135 1427.09 306.253 1425.86 305.651 1424.48C305.049 1423.11 304.741 1421.62 304.746 1420.12V1295.92C304.746 1293.51 304.123 1291.14 302.94 1289.04C301.756 1286.94 300.05 1285.19 297.989 1283.96C281.01 1273.72 267.496 1278.02 256.581 1294.03C252.943 1299.37 248.005 1305.19 241.768 1311.5C241.364 1311.89 240.875 1312.19 240.34 1312.36C239.804 1312.54 239.236 1312.59 238.677 1312.52C238.118 1312.44 237.583 1312.24 237.114 1311.93C236.644 1311.62 236.251 1311.21 235.964 1310.73L234.405 1308.06C234.139 1307.59 234 1307.05 234 1306.51C234 1305.97 234.139 1305.44 234.405 1304.96C245.32 1286.49 263.309 1274.41 288.373 1268.73C324.843 1260.46 327.615 1282.93 326.662 1313.14C326.316 1323.75 326.085 1356.32 325.969 1410.83C325.969 1412.99 326.836 1415.07 328.38 1416.61C329.923 1418.14 332.016 1419 334.199 1419H343.901C344.394 1419.02 344.868 1419.2 345.243 1419.52C345.618 1419.84 345.872 1420.27 345.963 1420.76C346.054 1421.24 345.976 1421.74 345.743 1422.17C345.51 1422.6 345.135 1422.94 344.681 1423.13Z" fill="#C4AB69"/>
<path d="M414.214 1301.94C426.139 1283.88 442.616 1272.49 463.644 1267.79C469.745 1266.4 476.029 1266.85 481.494 1269.08C486.96 1271.31 491.292 1275.19 493.803 1280.09C496.971 1286.4 498.354 1294.34 497.951 1303.92C495.704 1352.83 496.712 1392.49 500.975 1422.88C501.042 1423.27 500.974 1423.66 500.783 1423.99C500.593 1424.33 500.293 1424.57 499.938 1424.69L477.989 1431.83C477.5 1431.99 476.979 1432.04 476.468 1431.96C475.958 1431.89 475.474 1431.69 475.057 1431.38C474.641 1431.08 474.305 1430.68 474.078 1430.22C473.851 1429.75 473.74 1429.24 473.754 1428.73L475.051 1297.9C475.068 1295.97 474.584 1294.08 473.645 1292.39C472.707 1290.7 471.345 1289.28 469.693 1288.26C455.002 1279.49 437.431 1284.79 416.979 1304.18C416.656 1304.45 416.249 1304.59 415.828 1304.6C415.407 1304.6 414.997 1304.46 414.67 1304.19C414.343 1303.93 414.119 1303.56 414.036 1303.15C413.953 1302.74 414.016 1302.31 414.214 1301.94Z" fill="#C4AB69"/>
<path d="M506.214 1302.29C517.927 1284.26 534.256 1272.78 555.201 1267.86C561.287 1266.41 567.57 1266.8 573.045 1268.97C578.52 1271.13 582.872 1274.94 585.406 1279.79C588.637 1286.03 590.08 1293.93 589.734 1303.49C588.003 1352.15 589.417 1391.56 593.975 1421.73C594.042 1422.11 593.974 1422.51 593.783 1422.84C593.593 1423.17 593.292 1423.41 592.936 1423.53L571.126 1430.83C570.644 1430.99 570.129 1431.04 569.625 1430.97C569.12 1430.89 568.641 1430.7 568.226 1430.41C567.811 1430.11 567.473 1429.73 567.24 1429.28C567.007 1428.83 566.885 1428.33 566.885 1427.82V1297.74C566.887 1295.82 566.386 1293.94 565.43 1292.27C564.474 1290.6 563.097 1289.2 561.432 1288.21C546.661 1279.62 529.179 1285.06 508.984 1304.52C508.66 1304.79 508.253 1304.94 507.831 1304.94C507.409 1304.94 506.999 1304.8 506.671 1304.54C506.344 1304.27 506.119 1303.9 506.036 1303.49C505.952 1303.08 506.016 1302.66 506.214 1302.29Z" fill="#C4AB69"/>
<path d="M1008.75 1425.19C999.055 1430.03 991.557 1431.85 986.258 1430.64C984.868 1430.32 983.624 1429.53 982.732 1428.38C981.841 1427.23 981.354 1425.8 981.353 1424.33V1298.71C981.357 1295.49 980.29 1292.36 978.325 1289.84C976.359 1287.31 973.612 1285.53 970.529 1284.79C961.397 1282.63 947.444 1282.89 940.087 1289.98C935.464 1294.41 932.956 1296.63 932.561 1296.63C932.091 1296.65 931.625 1296.54 931.219 1296.3C930.812 1296.05 930.482 1295.7 930.268 1295.27C930.054 1294.84 929.965 1294.36 930.012 1293.88C930.059 1293.4 930.239 1292.95 930.532 1292.57C953.617 1264.82 1003.17 1248.65 1002.92 1303.29C1002.69 1366.17 1002.63 1400.55 1002.75 1406.43C1002.85 1409.7 1004.18 1412.82 1006.47 1415.16L1009.77 1418.53C1010.23 1419 1010.58 1419.58 1010.79 1420.21C1011 1420.84 1011.05 1421.52 1010.95 1422.17C1010.85 1422.82 1010.6 1423.44 1010.22 1423.96C1009.83 1424.49 1009.33 1424.91 1008.75 1425.19Z" fill="#C4AB69"/>
<path d="M1158.66 1418.83C1159.19 1418.77 1159.72 1418.93 1160.15 1419.25C1160.58 1419.58 1160.87 1420.06 1160.96 1420.59C1161.06 1421.12 1160.96 1421.68 1160.67 1422.14C1160.39 1422.6 1159.94 1422.93 1159.43 1423.07C1147.94 1427.75 1138.64 1430.38 1131.53 1430.96C1130.04 1431.09 1128.54 1430.9 1127.13 1430.41C1125.72 1429.92 1124.42 1429.13 1123.32 1428.09C1122.22 1427.06 1121.34 1425.8 1120.74 1424.4C1120.15 1423 1119.84 1421.48 1119.84 1419.95L1120.01 1294.29C1120.01 1291.84 1119.39 1289.43 1118.21 1287.3C1117.03 1285.18 1115.33 1283.4 1113.27 1282.16C1096.55 1271.76 1083.16 1276.09 1072.32 1292.3C1068.74 1297.73 1063.85 1303.62 1057.65 1309.98C1057.25 1310.37 1056.77 1310.67 1056.24 1310.84C1055.72 1311.02 1055.16 1311.07 1054.61 1311C1054.06 1310.92 1053.53 1310.72 1053.07 1310.41C1052.6 1310.1 1052.22 1309.68 1051.93 1309.2L1050.4 1306.51C1050.14 1306.03 1050 1305.5 1050 1304.95C1050 1304.41 1050.14 1303.87 1050.4 1303.39C1061.21 1284.67 1079.01 1272.45 1103.8 1266.73C1139.89 1258.41 1142.62 1281.12 1141.68 1311.71C1141.34 1322.46 1141.09 1355.42 1140.92 1410.59C1140.92 1412.78 1141.77 1414.87 1143.29 1416.41C1144.81 1417.96 1146.87 1418.83 1149.02 1418.83H1158.66Z" fill="#C4AB69"/>
<path d="M1787.81 1418.73C1788.32 1418.72 1788.8 1418.89 1789.19 1419.21C1789.58 1419.52 1789.85 1419.96 1789.95 1420.45C1790.06 1420.95 1789.99 1421.46 1789.75 1421.9C1789.52 1422.35 1789.14 1422.7 1788.68 1422.89C1777 1427.63 1767.55 1430.32 1760.32 1430.96C1758.81 1431.09 1757.3 1430.91 1755.87 1430.42C1754.44 1429.93 1753.12 1429.15 1752 1428.12C1750.89 1427.09 1749.99 1425.84 1749.38 1424.45C1748.77 1423.06 1748.45 1421.55 1748.44 1420.03L1748.09 1294.26C1748.07 1291.82 1747.43 1289.43 1746.23 1287.32C1745.03 1285.21 1743.31 1283.45 1741.24 1282.21C1724.15 1271.88 1710.62 1276.22 1699.7 1292.53C1696.05 1297.91 1691.08 1303.8 1684.78 1310.22C1684.37 1310.62 1683.88 1310.91 1683.35 1311.09C1682.81 1311.27 1682.24 1311.32 1681.68 1311.24C1681.12 1311.17 1680.59 1310.97 1680.12 1310.65C1679.65 1310.34 1679.25 1309.93 1678.97 1309.44L1677.41 1306.75C1677.14 1306.28 1677 1305.74 1677 1305.19C1677 1304.64 1677.14 1304.11 1677.41 1303.63C1688.33 1284.9 1706.37 1272.61 1731.53 1266.77C1768.21 1258.35 1771.07 1281.08 1770.21 1311.61C1769.86 1322.37 1769.72 1355.32 1769.77 1410.49C1769.77 1411.58 1769.99 1412.66 1770.41 1413.66C1770.83 1414.67 1771.44 1415.58 1772.22 1416.35C1772.99 1417.11 1773.91 1417.72 1774.92 1418.13C1775.93 1418.54 1777.01 1418.74 1778.1 1418.73H1787.81Z" fill="#C4AB69"/>
<path d="M368.302 1278.76L400.5 1268.24C401.121 1268.02 401.788 1267.95 402.445 1268.04C403.101 1268.13 403.727 1268.37 404.268 1268.75C404.809 1269.14 405.25 1269.64 405.551 1270.23C405.853 1270.82 406.007 1271.46 406 1272.12V1426.24C406 1426.97 405.701 1427.67 405.168 1428.19C404.636 1428.71 403.914 1429 403.161 1429H384.179C383.997 1429 383.816 1428.96 383.649 1428.89C383.481 1428.82 383.33 1428.72 383.206 1428.59C383.081 1428.46 382.985 1428.31 382.923 1428.14C382.862 1427.97 382.837 1427.8 382.849 1427.62C384.445 1400.15 384.504 1356.97 383.026 1298.07C382.849 1287.98 377.527 1284.27 368.479 1282.12C368.081 1282.05 367.718 1281.86 367.449 1281.57C367.181 1281.27 367.023 1280.9 367.002 1280.51C366.982 1280.12 367.099 1279.73 367.335 1279.41C367.572 1279.09 367.912 1278.86 368.302 1278.76Z" fill="#C4AB69"/>
<path d="M1550.74 1300.78C1563.99 1284.89 1577.6 1274.74 1591.59 1270.32C1672.35 1244.76 1670.74 1438.98 1547.34 1429.94C1546.79 1429.9 1546.23 1429.97 1545.71 1430.15C1545.19 1430.33 1544.7 1430.62 1544.3 1431C1543.89 1431.38 1543.57 1431.84 1543.34 1432.36C1543.12 1432.87 1543.01 1433.43 1543.01 1433.99V1520.12C1543.01 1520.71 1542.85 1521.29 1542.53 1521.8C1542.22 1522.3 1541.76 1522.7 1541.23 1522.96C1536.19 1525.49 1531.43 1527.15 1526.96 1527.96C1526.54 1528.03 1526.1 1528.01 1525.69 1527.9C1525.27 1527.79 1524.88 1527.58 1524.55 1527.31C1524.22 1527.03 1523.95 1526.68 1523.77 1526.29C1523.58 1525.89 1523.48 1525.47 1523.48 1525.03V1292.87C1523.47 1291.33 1522.99 1289.83 1522.11 1288.58C1521.23 1287.34 1519.99 1286.4 1518.55 1285.9L1510.4 1283.23C1509.99 1283.08 1509.63 1282.8 1509.38 1282.44C1509.13 1282.08 1509 1281.65 1509 1281.21C1509 1280.76 1509.13 1280.33 1509.38 1279.97C1509.63 1279.61 1509.99 1279.33 1510.4 1279.18L1537.58 1269.89C1538.19 1269.67 1538.84 1269.61 1539.48 1269.7C1540.12 1269.8 1540.74 1270.05 1541.27 1270.43C1541.8 1270.82 1542.23 1271.33 1542.54 1271.93C1542.84 1272.52 1543 1273.18 1543.01 1273.85V1408.95C1543.01 1410.22 1543.42 1411.46 1544.17 1412.48C1544.92 1413.51 1545.97 1414.26 1547.17 1414.63C1579.44 1424.35 1604.67 1420.56 1617.66 1387.09C1628.45 1359.3 1637.53 1276.34 1586.92 1283.49C1575.03 1285.21 1565.01 1298.54 1553.12 1303.97C1552.7 1304.14 1552.24 1304.17 1551.81 1304.05C1551.37 1303.93 1550.99 1303.66 1550.72 1303.3C1550.45 1302.94 1550.3 1302.49 1550.31 1302.04C1550.31 1301.58 1550.46 1301.14 1550.74 1300.78Z" fill="#C4AB69"/>
<path d="M199.522 1418.43C200.021 1418.75 200.424 1419.2 200.683 1419.74C200.942 1420.27 201.045 1420.87 200.982 1421.45C200.918 1422.04 200.69 1422.58 200.324 1423.03C199.958 1423.48 199.469 1423.81 198.916 1423.98L176.592 1431.62C175.49 1431.99 174.317 1432.09 173.167 1431.92C172.018 1431.75 170.926 1431.3 169.981 1430.63C169.035 1429.95 168.263 1429.06 167.728 1428.02C167.193 1426.99 166.909 1425.84 166.901 1424.68L166.468 1295.52C166.457 1293.8 165.954 1292.11 165.018 1290.67C164.083 1289.22 162.755 1288.08 161.19 1287.37C159.113 1286.38 157.469 1285.6 156.258 1285.02C155.535 1284.65 154.937 1284.08 154.538 1283.37C154.138 1282.66 153.954 1281.85 154.01 1281.03C154.065 1280.22 154.357 1279.44 154.848 1278.8C155.34 1278.15 156.011 1277.66 156.777 1277.39L183.601 1268.19C184.201 1268 184.839 1267.95 185.461 1268.05C186.083 1268.14 186.672 1268.38 187.179 1268.75C187.686 1269.11 188.096 1269.59 188.377 1270.14C188.658 1270.69 188.8 1271.31 188.792 1271.92L189.225 1407.5C189.225 1408.96 189.591 1410.38 190.288 1411.64C190.985 1412.9 191.99 1413.96 193.205 1414.7L199.522 1418.43Z" fill="#C4AB69"/>
<path d="M1230.89 1424.07L1208.32 1431.62C1207.21 1431.99 1206.02 1432.09 1204.86 1431.92C1203.69 1431.75 1202.59 1431.3 1201.63 1430.63C1200.68 1429.95 1199.9 1429.06 1199.36 1428.02C1198.82 1426.99 1198.53 1425.84 1198.52 1424.67V1295.45C1198.52 1293.73 1198.02 1292.06 1197.09 1290.61C1196.16 1289.17 1194.84 1288.01 1193.27 1287.29C1191.17 1286.3 1189.51 1285.52 1188.28 1284.95C1187.55 1284.57 1186.95 1284 1186.54 1283.29C1186.14 1282.58 1185.95 1281.77 1186.01 1280.95C1186.07 1280.14 1186.36 1279.36 1186.86 1278.72C1187.36 1278.07 1188.03 1277.58 1188.81 1277.31L1215.93 1268.19C1216.54 1268 1217.18 1267.95 1217.81 1268.05C1218.44 1268.14 1219.04 1268.38 1219.55 1268.75C1220.06 1269.11 1220.48 1269.59 1220.76 1270.14C1221.05 1270.7 1221.19 1271.31 1221.18 1271.93V1407.58C1221.18 1409.03 1221.55 1410.46 1222.26 1411.72C1222.96 1412.98 1223.98 1414.04 1225.21 1414.78L1231.51 1418.51C1232.01 1418.83 1232.42 1419.29 1232.68 1419.82C1232.94 1420.36 1233.05 1420.95 1232.98 1421.53C1232.92 1422.12 1232.69 1422.67 1232.32 1423.12C1231.95 1423.56 1231.45 1423.89 1230.89 1424.07Z" fill="#C4AB69"/>
<path d="M282.986 1416.82C283.249 1416.72 283.529 1416.68 283.809 1416.69C284.088 1416.71 284.362 1416.78 284.614 1416.9C284.867 1417.02 285.092 1417.19 285.276 1417.4C285.461 1417.61 285.602 1417.85 285.69 1418.12L286.736 1421.24C286.877 1421.59 286.874 1421.98 286.729 1422.33C286.583 1422.69 286.305 1422.98 285.951 1423.15C251.59 1440.86 221.938 1428.28 230.485 1388.6C235.456 1365.6 252.985 1355.96 273.044 1346.5C281.184 1342.68 288.277 1341.29 294.323 1342.33C294.787 1342.4 295.206 1342.62 295.512 1342.97C295.817 1343.31 295.989 1343.76 296 1344.23C296.01 1344.7 295.857 1345.16 295.568 1345.54C295.279 1345.93 294.87 1346.2 294.411 1346.33C268.335 1352.67 247.84 1372.98 250.544 1401.54C252.201 1419.86 268.596 1421.85 282.986 1416.82Z" fill="#C4AB69"/>
<path d="M1097.55 1416.53C1097.81 1416.43 1098.09 1416.38 1098.37 1416.39C1098.64 1416.4 1098.91 1416.46 1099.17 1416.58C1099.42 1416.69 1099.65 1416.85 1099.84 1417.06C1100.03 1417.26 1100.18 1417.49 1100.27 1417.75L1101.41 1420.9C1101.55 1421.24 1101.55 1421.63 1101.4 1421.99C1101.26 1422.35 1100.98 1422.64 1100.62 1422.82C1066.14 1440.99 1036.13 1428.59 1044.38 1388.57C1049.21 1365.33 1066.75 1355.46 1086.85 1345.67C1095.04 1341.77 1102.17 1340.31 1108.26 1341.3C1108.73 1341.35 1109.16 1341.57 1109.48 1341.91C1109.79 1342.25 1109.98 1342.69 1110 1343.17C1110.02 1343.64 1109.87 1344.12 1109.59 1344.51C1109.3 1344.9 1108.9 1345.19 1108.43 1345.32C1082.2 1351.96 1061.75 1372.58 1064.74 1401.41C1066.58 1419.85 1083.16 1421.68 1097.55 1416.53Z" fill="#C4AB69"/>
<path d="M1726.9 1416.98C1727.44 1416.82 1728.02 1416.87 1728.52 1417.13C1729.02 1417.39 1729.4 1417.84 1729.58 1418.38L1730.53 1421.52C1730.67 1421.87 1730.67 1422.26 1730.52 1422.62C1730.38 1422.97 1730.1 1423.27 1729.75 1423.45C1695.09 1440.92 1665.52 1427.73 1674.69 1387.54C1680.05 1364.21 1697.68 1354.69 1717.91 1345.34C1726.15 1341.56 1733.3 1340.25 1739.35 1341.41C1739.81 1341.51 1740.23 1341.77 1740.53 1342.14C1740.84 1342.51 1741 1342.98 1741 1343.46C1741 1343.95 1740.84 1344.41 1740.53 1344.79C1740.23 1345.16 1739.81 1345.42 1739.35 1345.52C1713.15 1351.55 1692.32 1371.9 1694.57 1400.99C1695.95 1419.6 1712.38 1421.87 1726.9 1416.98Z" fill="#C4AB69"/>
</svg>
