<svg width="993" height="732" viewBox="0 0 993 732" fill="none" xmlns="http://www.w3.org/2000/svg">
<path d="M0.512 486.728V467.4H71.424V486.728H46.72V557H25.088V486.728H0.512ZM87.238 519.496V500.04H155.078V519.496H87.238ZM141.382 467.4H163.014V557H141.382V467.4ZM81.222 467.4H102.854V557H81.222V467.4ZM196.183 557V539.208H241.367V557H196.183ZM196.183 485.192V467.4H241.367V485.192H196.183ZM196.183 518.6V501.192H238.807V518.6H196.183ZM181.847 467.4H202.583V557H181.847V467.4ZM297.347 467.4H319.363V557H297.347V467.4ZM356.779 512.2C356.779 517.661 358.016 522.397 360.491 526.408C362.966 530.333 366.208 533.32 370.219 535.368C374.315 537.416 378.795 538.44 383.659 538.44C387.926 538.44 391.68 537.885 394.923 536.776C398.166 535.667 401.067 534.216 403.627 532.424C406.187 530.632 408.448 528.712 410.411 526.664V549.96C406.827 552.776 402.902 554.995 398.635 556.616C394.368 558.237 388.95 559.048 382.379 559.048C375.211 559.048 368.598 557.939 362.539 555.72C356.48 553.501 351.275 550.301 346.923 546.12C342.571 541.939 339.2 536.989 336.811 531.272C334.422 525.555 333.227 519.197 333.227 512.2C333.227 505.203 334.422 498.845 336.811 493.128C339.2 487.411 342.571 482.461 346.923 478.28C351.275 474.099 356.48 470.899 362.539 468.68C368.598 466.461 375.211 465.352 382.379 465.352C388.95 465.352 394.368 466.163 398.635 467.784C402.902 469.405 406.827 471.624 410.411 474.44V497.736C408.448 495.688 406.187 493.768 403.627 491.976C401.067 490.099 398.166 488.648 394.923 487.624C391.68 486.515 387.926 485.96 383.659 485.96C378.795 485.96 374.315 486.984 370.219 489.032C366.208 491.08 362.966 494.067 360.491 497.992C358.016 501.917 356.779 506.653 356.779 512.2ZM445.889 512.2C445.889 517.491 446.913 522.184 448.961 526.28C451.094 530.291 454.038 533.448 457.793 535.752C461.633 538.056 466.113 539.208 471.233 539.208C476.268 539.208 480.662 538.056 484.417 535.752C488.257 533.448 491.201 530.291 493.249 526.28C495.382 522.184 496.449 517.491 496.449 512.2C496.449 506.909 495.425 502.259 493.377 498.248C491.329 494.152 488.428 490.952 484.673 488.648C480.918 486.344 476.438 485.192 471.233 485.192C466.113 485.192 461.633 486.344 457.793 488.648C454.038 490.952 451.094 494.152 448.961 498.248C446.913 502.259 445.889 506.909 445.889 512.2ZM422.977 512.2C422.977 505.288 424.172 498.973 426.561 493.256C429.036 487.539 432.449 482.589 436.801 478.408C441.153 474.227 446.273 471.027 452.161 468.808C458.049 466.504 464.406 465.352 471.233 465.352C478.145 465.352 484.502 466.504 490.305 468.808C496.193 471.027 501.313 474.227 505.665 478.408C510.017 482.589 513.388 487.539 515.777 493.256C518.166 498.973 519.361 505.288 519.361 512.2C519.361 519.112 518.166 525.469 515.777 531.272C513.473 537.075 510.145 542.109 505.793 546.376C501.526 550.643 496.449 553.971 490.561 556.36C484.673 558.664 478.23 559.816 471.233 559.816C464.15 559.816 457.665 558.664 451.777 556.36C445.889 553.971 440.769 550.643 436.417 546.376C432.15 542.109 428.822 537.075 426.433 531.272C424.129 525.469 422.977 519.112 422.977 512.2ZM595.046 467.4H615.91V561.48L553.958 506.568V557H533.222V462.92L595.046 517.832V467.4ZM683.078 525.512C684.87 528.755 686.875 531.571 689.094 533.96C691.398 536.349 693.873 538.184 696.518 539.464C699.249 540.744 702.107 541.384 705.094 541.384C708.251 541.384 710.854 540.616 712.902 539.08C714.95 537.459 715.974 535.283 715.974 532.552C715.974 530.248 715.377 528.413 714.182 527.048C712.987 525.597 711.067 524.232 708.422 522.952C705.777 521.672 702.278 520.221 697.926 518.6C695.793 517.832 693.318 516.765 690.502 515.4C687.771 514.035 685.169 512.285 682.694 510.152C680.219 507.933 678.171 505.288 676.55 502.216C674.929 499.059 674.118 495.261 674.118 490.824C674.118 485.533 675.483 480.968 678.214 477.128C681.03 473.288 684.785 470.387 689.478 468.424C694.257 466.376 699.547 465.352 705.35 465.352C711.323 465.352 716.486 466.333 720.838 468.296C725.275 470.259 728.945 472.733 731.846 475.72C734.747 478.707 736.966 481.736 738.502 484.808L721.99 494.024C720.71 491.891 719.217 490.056 717.51 488.52C715.889 486.899 714.054 485.661 712.006 484.808C710.043 483.869 707.91 483.4 705.606 483.4C702.534 483.4 700.187 484.083 698.566 485.448C696.945 486.728 696.134 488.349 696.134 490.312C696.134 492.36 696.902 494.152 698.438 495.688C700.059 497.224 702.321 498.632 705.222 499.912C708.209 501.192 711.793 502.557 715.974 504.008C719.131 505.203 722.075 506.611 724.806 508.232C727.537 509.768 729.926 511.645 731.974 513.864C734.107 516.083 735.771 518.643 736.966 521.544C738.161 524.445 738.758 527.773 738.758 531.528C738.758 536.051 737.819 540.104 735.942 543.688C734.15 547.187 731.675 550.131 728.518 552.52C725.446 554.909 721.905 556.701 717.894 557.896C713.969 559.176 709.915 559.816 705.734 559.816C699.931 559.816 694.513 558.792 689.478 556.744C684.529 554.611 680.219 551.752 676.55 548.168C672.881 544.584 670.022 540.659 667.974 536.392L683.078 525.512ZM753.222 467.4H775.238V557H753.222V467.4ZM808.302 539.72L809.838 523.208H854.254L855.662 539.72H808.302ZM831.726 500.296L819.182 529.224L820.206 533.96L809.07 557H784.622L831.726 461.768L878.958 557H854.382L843.63 534.856L844.398 529.352L831.726 500.296ZM911.387 511.304L906.011 557H883.227L897.691 462.92L935.835 517.576L974.107 462.92L988.571 557H965.787L960.411 511.304L935.835 548.68L911.387 511.304Z" fill="#C4AA69"/>
<path d="M113.82 623.78C113.26 623.78 112.653 623.547 112 623.08C110.32 621.493 109.48 619.487 109.48 617.06C109.48 614.167 110.693 611.18 113.12 608.1C115.64 604.927 119.327 602.407 124.18 600.54C129.687 598.393 135.66 596.62 142.1 595.22C148.54 593.727 155.12 592.653 161.84 592C168.653 591.253 175.187 590.88 181.44 590.88C183.773 590.88 186.06 590.927 188.3 591.02C190.54 591.113 192.687 591.253 194.74 591.44C208.46 592.747 218.913 595.36 226.1 599.28C233.38 603.2 237.02 607.307 237.02 611.6C237.02 613.373 236.413 615.053 235.2 616.64C234.64 617.387 233.8 618.133 232.68 618.88C231.653 619.533 230.813 619.86 230.16 619.86C229.6 619.86 229.32 619.58 229.32 619.02C229.32 618.367 229.787 617.293 230.72 615.8C231.84 614.12 232.4 612.58 232.4 611.18C232.4 608.473 230.673 606.373 227.22 604.88C223.86 603.293 219.427 602.22 213.92 601.66C208.507 601.007 202.673 600.68 196.42 600.68C192.127 600.68 187.787 600.82 183.4 601.1C179.013 601.287 174.907 601.567 171.08 601.94C169.307 602.127 166.6 602.453 162.96 602.92C159.413 603.387 155.4 603.993 150.92 604.74C146.44 605.393 141.913 606.233 137.34 607.26C132.767 608.193 128.567 609.267 124.74 610.48C120.913 611.693 117.787 613.047 115.36 614.54C113.027 615.94 111.86 617.527 111.86 619.3C111.86 620.513 112.56 621.773 113.96 623.08C114.147 623.267 114.24 623.407 114.24 623.5C114.24 623.687 114.1 623.78 113.82 623.78ZM152.32 694.34C147.467 693.967 144.153 692.427 142.38 689.72C140.607 687.013 139.72 683.84 139.72 680.2C139.72 677.12 140.14 673.947 140.98 670.68C141.82 667.413 142.707 664.427 143.64 661.72C144.573 659.107 145.787 656.353 147.28 653.46C148.867 650.567 150.967 647.113 153.58 643.1C156.287 639.087 159.787 634.047 164.08 627.98C168.373 621.913 173.693 614.4 180.04 605.44C181.16 604.04 182.14 603.34 182.98 603.34C183.54 603.34 183.913 603.573 184.1 604.04C184.38 604.413 184.427 604.787 184.24 605.16C175.467 618.133 168.7 629.287 163.94 638.62C159.273 647.86 155.82 655.747 153.58 662.28C153.113 663.587 152.507 665.453 151.76 667.88C151.107 670.213 150.5 672.78 149.94 675.58C149.38 678.287 149.1 680.853 149.1 683.28C149.1 685.893 149.567 688.133 150.5 690C151.433 691.867 153.067 692.8 155.4 692.8C156.8 692.8 158.107 692.333 159.32 691.4C159.787 691.12 160.067 690.98 160.16 690.98C160.347 690.98 160.44 691.073 160.44 691.26C160.44 691.54 160.16 691.913 159.6 692.38C157.827 693.967 155.4 694.62 152.32 694.34ZM202.806 683.14C200.473 683.14 198.606 682.487 197.206 681.18C195.9 679.873 195.246 678.1 195.246 675.86C195.246 674.46 195.573 672.873 196.226 671.1C196.88 669.327 197.906 667.507 199.306 665.64C201.453 662.747 203.506 660.227 205.466 658.08C207.426 655.84 208.873 653.833 209.806 652.06C210.74 650.38 211.206 649.073 211.206 648.14C211.206 646.74 210.366 646.04 208.686 646.04C207.193 646.04 205.046 646.88 202.246 648.56C199.54 650.147 196.693 652.76 193.706 656.4C192.026 658.453 190.113 660.88 187.966 663.68C185.82 666.387 184.093 668.907 182.786 671.24C182.226 672.267 181.666 673.34 181.106 674.46C180.64 675.487 179.893 677.26 178.866 679.78C178.586 680.433 177.793 681.133 176.486 681.88C175.273 682.627 174.293 683 173.546 683C172.986 683 172.706 682.767 172.706 682.3C172.706 681.927 172.846 681.46 173.126 680.9C173.593 680.06 174.62 677.4 176.206 672.92C177.886 668.44 179.986 663.167 182.506 657.1C181.106 658.593 179.566 660.227 177.886 662C176.206 663.68 174.34 665.313 172.286 666.9C171.913 667.273 171.493 667.46 171.026 667.46C170.466 667.46 170.186 667.227 170.186 666.76C170.186 666.387 170.606 665.873 171.446 665.22C173.593 663.353 175.74 661.393 177.886 659.34C180.033 657.193 182.366 654.533 184.886 651.36C185.726 649.307 187.22 646.367 189.366 642.54C191.513 638.62 194.08 634.28 197.066 629.52C200.053 624.76 203.366 620 207.006 615.24C210.646 610.48 214.38 606.233 218.206 602.5C221.66 599.14 225.253 596.573 228.986 594.8C232.813 593.027 236.266 592.14 239.346 592.14C242.053 592.14 244.246 592.793 245.926 594.1C247.606 595.407 248.446 597.507 248.446 600.4C248.446 603.293 247.653 606.373 246.066 609.64C244.48 612.907 242.8 615.52 241.026 617.48C237.013 621.96 232.253 626.067 226.746 629.8C221.333 633.533 215.64 636.707 209.666 639.32C209.48 639.413 209.293 639.507 209.106 639.6C208.92 639.6 208.733 639.6 208.546 639.6C207.893 639.6 207.566 639.367 207.566 638.9C207.566 638.34 208.08 637.873 209.106 637.5C212.653 635.913 216.246 633.953 219.886 631.62C223.62 629.287 227.073 626.767 230.246 624.06C233.42 621.353 236.08 618.647 238.226 615.94C240.746 612.767 242.38 610.2 243.126 608.24C243.873 606.187 244.246 604.46 244.246 603.06C244.246 601.193 243.22 600.26 241.166 600.26C240.233 600.26 238.88 600.727 237.106 601.66C235.333 602.5 233.233 603.9 230.806 605.86C227.073 608.847 223.2 612.487 219.186 616.78C215.266 621.073 211.393 625.74 207.566 630.78C203.833 635.82 200.286 640.953 196.926 646.18C193.566 651.407 190.533 656.493 187.826 661.44C188.946 659.853 190.113 658.267 191.326 656.68C192.54 655 193.753 653.507 194.966 652.2C197.766 649.12 200.52 646.88 203.226 645.48C205.933 644.08 208.36 643.38 210.506 643.38C212.933 643.38 214.893 644.127 216.386 645.62C217.88 647.02 218.626 648.933 218.626 651.36C218.626 652.667 218.393 653.973 217.926 655.28C217.553 656.493 217.086 657.613 216.526 658.64C215.78 660.227 214.8 662.093 213.586 664.24C212.373 666.387 211.206 668.393 210.086 670.26C207.94 673.713 206.866 676.187 206.866 677.68C206.866 678.52 207.24 678.94 207.986 678.94C208.92 678.94 210.46 678.287 212.606 676.98C214.286 675.953 216.153 674.647 218.206 673.06C220.353 671.38 222.453 669.653 224.506 667.88C226.653 666.107 228.473 664.567 229.966 663.26C231.553 661.86 232.58 660.927 233.046 660.46C233.606 659.9 234.026 659.62 234.306 659.62C234.586 659.62 234.726 659.76 234.726 660.04C234.726 660.507 234.4 661.16 233.746 662C231.32 664.52 228.286 667.367 224.646 670.54C221.006 673.713 216.9 676.793 212.326 679.78C210.553 680.993 208.826 681.88 207.146 682.44C205.56 682.907 204.113 683.14 202.806 683.14ZM236.731 683.14C233.838 683.14 231.598 682.253 230.011 680.48C228.425 678.613 227.631 676.233 227.631 673.34C227.631 670.633 228.331 667.647 229.731 664.38C231.225 661.113 233.558 657.8 236.731 654.44C239.998 650.893 244.058 648.047 248.911 645.9C253.765 643.66 258.385 642.54 262.771 642.54C266.318 642.54 269.351 643.333 271.871 644.92C274.391 646.413 276.071 648.327 276.911 650.66C277.938 650.66 279.198 650.94 280.691 651.5C282.278 652.06 283.071 653.087 283.071 654.58C283.071 655.607 282.558 656.773 281.531 658.08C280.878 659.013 279.711 660.413 278.031 662.28C276.445 664.147 274.951 666.153 273.551 668.3C272.431 669.98 271.545 671.567 270.891 673.06C270.238 674.46 269.911 675.673 269.911 676.7C269.911 678.1 270.611 678.8 272.011 678.8C273.598 678.8 275.978 677.913 279.151 676.14C282.605 674.18 285.918 671.94 289.091 669.42C292.265 666.9 294.738 664.893 296.511 663.4C296.978 663.027 297.305 662.84 297.491 662.84C297.865 662.84 298.051 663.073 298.051 663.54C298.051 664.1 297.818 664.613 297.351 665.08C296.511 665.827 294.878 667.227 292.451 669.28C290.025 671.333 287.225 673.48 284.051 675.72C280.971 677.96 277.938 679.78 274.951 681.18C273.458 681.833 272.058 682.347 270.751 682.72C269.538 683 268.418 683.14 267.391 683.14C264.871 683.14 262.958 682.44 261.651 681.04C260.345 679.547 259.691 677.633 259.691 675.3C259.691 674.367 259.831 673.387 260.111 672.36C260.391 671.333 260.718 670.307 261.091 669.28L262.071 666.9C259.645 669.887 257.218 672.407 254.791 674.46C252.365 676.42 249.938 678.147 247.511 679.64C245.458 680.853 243.498 681.74 241.631 682.3C239.858 682.86 238.225 683.14 236.731 683.14ZM241.071 679.5C242.751 679.5 245.178 678.52 248.351 676.56C251.525 674.507 255.211 671.38 259.411 667.18C259.971 666.62 260.998 665.64 262.491 664.24C264.078 662.747 265.758 661.113 267.531 659.34C269.305 657.473 270.798 655.653 272.011 653.88C273.318 652.013 273.971 650.473 273.971 649.26C273.971 647.487 272.431 646.6 269.351 646.6C266.645 646.6 263.378 647.673 259.551 649.82C255.818 651.873 252.225 654.953 248.771 659.06C245.225 663.26 242.611 666.9 240.931 669.98C239.345 672.967 238.551 675.253 238.551 676.84C238.551 678.613 239.391 679.5 241.071 679.5ZM326.833 640.16C325.527 640.16 324.547 639.74 323.893 638.9C323.24 638.06 322.913 637.173 322.913 636.24C322.913 634.373 323.8 632.553 325.573 630.78C327.347 628.913 329.213 627.98 331.173 627.98C332.48 627.98 333.46 628.4 334.113 629.24C334.767 630.08 335.093 630.967 335.093 631.9C335.093 633.86 334.207 635.727 332.433 637.5C330.753 639.273 328.887 640.16 326.833 640.16ZM305.413 683.14C301.587 683.14 298.973 682.347 297.573 680.76C296.267 679.08 295.613 677.213 295.613 675.16C295.613 673.48 295.893 671.893 296.453 670.4C297.013 668.813 297.48 667.693 297.853 667.04C298.413 666.107 299.16 665.033 300.093 663.82C301.12 662.607 302.24 661.3 303.453 659.9C301.587 661.487 299.813 663.027 298.133 664.52C296.547 666.013 295.24 667.133 294.213 667.88C293.933 668.16 293.653 668.3 293.373 668.3C293 668.3 292.813 668.067 292.813 667.6C292.813 666.853 293.327 666.107 294.353 665.36C296.78 663.307 299.113 661.067 301.353 658.64C303.687 656.213 305.88 653.973 307.933 651.92C309.987 649.773 311.807 648.28 313.393 647.44C315.073 646.507 316.427 645.9 317.453 645.62C318.48 645.34 319.32 645.2 319.973 645.2C321 645.2 321.747 645.387 322.213 645.76C322.68 646.04 322.773 646.367 322.493 646.74C320.907 648.327 319.32 650.38 317.733 652.9C316.24 655.327 314.84 657.893 313.533 660.6C312.227 663.307 311.153 665.873 310.313 668.3C309.567 670.727 309.193 672.78 309.193 674.46C309.193 676.793 310.127 677.96 311.993 677.96C313.767 677.96 316.053 677.167 318.853 675.58C321.747 673.9 324.733 671.8 327.813 669.28C330.987 666.76 333.927 664.287 336.633 661.86C337.007 661.487 337.333 661.3 337.613 661.3C338.08 661.3 338.313 661.533 338.313 662C338.407 662.467 338.313 662.793 338.033 662.98C334.953 665.873 331.453 668.907 327.533 672.08C323.707 675.16 319.833 677.773 315.913 679.92C312.087 682.067 308.587 683.14 305.413 683.14ZM535.712 715.06C533.379 715.06 530.859 714.453 528.152 713.24C525.539 712.12 523.346 710.393 521.572 708.06C519.892 705.82 519.146 703.067 519.332 699.8C519.426 697.84 519.612 695.88 519.892 693.92C520.266 692.053 521.012 689.767 522.132 687.06C523.346 684.353 525.212 680.853 527.732 676.56C530.346 672.173 533.939 666.62 538.512 659.9C543.179 653.18 549.106 644.78 556.292 634.7C559.746 629.94 562.172 626.02 563.572 622.94C564.972 619.86 565.672 617.433 565.672 615.66C565.672 614.167 565.252 613.093 564.412 612.44C563.572 611.787 562.499 611.46 561.192 611.46C559.326 611.46 557.086 612.02 554.472 613.14C551.952 614.26 549.526 615.707 547.192 617.48C542.806 620.747 538.326 624.48 533.752 628.68C529.179 632.787 524.746 637.033 520.452 641.42C516.159 645.807 512.146 650.053 508.412 654.16C505.332 659.107 502.439 663.633 499.732 667.74C497.026 671.753 495.066 674.647 493.852 676.42C493.479 677.073 492.872 677.54 492.032 677.82C491.286 678.1 490.539 678.24 489.792 678.24C488.486 678.24 487.319 677.913 486.292 677.26C485.266 676.513 485.032 675.627 485.592 674.6C485.592 674.6 486.152 673.62 487.272 671.66C488.392 669.7 489.839 667.087 491.612 663.82C493.479 660.553 495.439 656.96 497.492 653.04C499.639 649.12 501.692 645.247 503.652 641.42C505.612 637.5 507.292 633.907 508.692 630.64C510.186 627.373 511.166 624.807 511.632 622.94C512.192 620.513 512.472 618.273 512.472 616.22C512.472 614.167 512.099 612.533 511.352 611.32C510.606 610.013 509.299 609.36 507.432 609.36C506.219 609.36 504.679 609.733 502.812 610.48C500.946 611.227 498.752 612.393 496.232 613.98C491.939 616.78 487.086 620.467 481.672 625.04C476.352 629.52 470.799 634.56 465.012 640.16C459.319 645.667 453.626 651.36 447.932 657.24C442.332 663.027 437.106 668.673 432.252 674.18C431.972 674.46 431.646 674.6 431.272 674.6C427.726 679.173 425.066 682.16 423.292 683.56C421.612 684.96 420.772 685.24 420.772 684.4C420.772 682.533 423.339 678.38 428.472 671.94C432.486 666.993 436.779 661.767 441.352 656.26C446.019 650.66 450.359 645.107 454.372 639.6C458.479 634.093 461.746 628.96 464.172 624.2C466.599 619.44 467.812 615.427 467.812 612.16C467.812 607.773 465.992 604.74 462.352 603.06C458.806 601.38 454.279 600.54 448.772 600.54C444.386 600.54 439.672 600.96 434.632 601.8C429.686 602.547 424.739 603.527 419.792 604.74C414.939 605.86 410.459 607.073 406.352 608.38C402.246 609.593 398.932 610.62 396.412 611.46C392.306 612.86 388.526 614.353 385.072 615.94C381.619 617.527 378.866 619.16 376.812 620.84C374.852 622.427 373.872 624.06 373.872 625.74C373.872 627.327 374.946 628.867 377.092 630.36C377.279 630.453 377.372 630.593 377.372 630.78C377.372 630.967 377.139 631.06 376.672 631.06C376.206 631.06 375.739 630.92 375.272 630.64C372.566 628.773 371.212 626.067 371.212 622.52C371.212 619.907 372.099 617.153 373.872 614.26C375.646 611.367 378.399 608.893 382.132 606.84C386.892 604.133 392.212 601.707 398.092 599.56C403.972 597.32 410.039 595.453 416.292 593.96C422.546 592.373 428.706 591.207 434.772 590.46C440.932 589.62 446.626 589.2 451.852 589.2C458.759 589.2 464.172 589.9 468.092 591.3C472.106 592.7 474.952 594.613 476.632 597.04C478.312 599.467 479.152 602.173 479.152 605.16C479.152 609.173 477.939 613.42 475.512 617.9C473.179 622.38 470.566 626.393 467.672 629.94C465.059 633.113 461.699 637.08 457.592 641.84C453.579 646.6 449.612 651.407 445.692 656.26C451.386 650.287 457.172 644.453 463.052 638.76C468.932 633.067 474.626 627.887 480.132 623.22C485.639 618.553 490.586 614.773 494.972 611.88C499.732 608.8 503.886 606.607 507.432 605.3C511.072 603.9 514.152 603.2 516.672 603.2C520.219 603.2 522.739 604.273 524.232 606.42C525.819 608.567 526.612 611.227 526.612 614.4C526.612 617.76 525.819 621.4 524.232 625.32C523.206 627.84 521.852 630.733 520.172 634C518.492 637.173 516.626 640.487 514.572 643.94C519.426 638.9 524.559 633.86 529.972 628.82C535.479 623.78 540.799 619.347 545.932 615.52C550.412 612.253 555.126 609.547 560.072 607.4C565.019 605.253 569.219 604.18 572.672 604.18C574.726 604.18 576.359 604.647 577.572 605.58C578.786 606.42 579.392 607.82 579.392 609.78C579.392 611.46 578.832 613.607 577.712 616.22C576.592 618.833 574.819 621.96 572.392 625.6C562.872 639.693 555.126 651.827 549.152 662C543.272 672.08 538.932 680.48 536.132 687.2C533.332 693.92 531.746 699.287 531.372 703.3C531.279 703.767 531.232 704.233 531.232 704.7C531.232 705.167 531.232 705.633 531.232 706.1C531.232 708.713 531.652 710.533 532.492 711.56C533.426 712.68 534.452 713.24 535.572 713.24C536.972 713.24 538.279 712.727 539.492 711.7C539.866 711.513 540.099 711.42 540.192 711.42C540.659 711.42 541.032 711.653 541.312 712.12C541.592 712.587 541.499 713.053 541.032 713.52C539.726 714.547 537.952 715.06 535.712 715.06ZM564.583 683.14C561.689 683.14 559.449 682.253 557.863 680.48C556.276 678.613 555.483 676.233 555.483 673.34C555.483 670.633 556.183 667.647 557.583 664.38C559.076 661.113 561.409 657.8 564.583 654.44C567.849 650.893 571.909 648.047 576.763 645.9C581.616 643.66 586.236 642.54 590.623 642.54C594.169 642.54 597.203 643.333 599.723 644.92C602.243 646.413 603.923 648.327 604.763 650.66C605.789 650.66 607.049 650.94 608.543 651.5C610.129 652.06 610.923 653.087 610.923 654.58C610.923 655.607 610.409 656.773 609.383 658.08C608.729 659.013 607.563 660.413 605.883 662.28C604.296 664.147 602.803 666.153 601.403 668.3C600.283 669.98 599.396 671.567 598.743 673.06C598.089 674.46 597.763 675.673 597.763 676.7C597.763 678.1 598.463 678.8 599.863 678.8C601.449 678.8 603.829 677.913 607.003 676.14C610.456 674.18 613.769 671.94 616.943 669.42C620.116 666.9 622.589 664.893 624.363 663.4C624.829 663.027 625.156 662.84 625.343 662.84C625.716 662.84 625.903 663.073 625.903 663.54C625.903 664.1 625.669 664.613 625.203 665.08C624.363 665.827 622.729 667.227 620.303 669.28C617.876 671.333 615.076 673.48 611.903 675.72C608.823 677.96 605.789 679.78 602.803 681.18C601.309 681.833 599.909 682.347 598.603 682.72C597.389 683 596.269 683.14 595.243 683.14C592.723 683.14 590.809 682.44 589.503 681.04C588.196 679.547 587.543 677.633 587.543 675.3C587.543 674.367 587.683 673.387 587.963 672.36C588.243 671.333 588.569 670.307 588.943 669.28L589.923 666.9C587.496 669.887 585.069 672.407 582.643 674.46C580.216 676.42 577.789 678.147 575.363 679.64C573.309 680.853 571.349 681.74 569.483 682.3C567.709 682.86 566.076 683.14 564.583 683.14ZM568.923 679.5C570.603 679.5 573.029 678.52 576.203 676.56C579.376 674.507 583.063 671.38 587.263 667.18C587.823 666.62 588.849 665.64 590.343 664.24C591.929 662.747 593.609 661.113 595.383 659.34C597.156 657.473 598.649 655.653 599.863 653.88C601.169 652.013 601.823 650.473 601.823 649.26C601.823 647.487 600.283 646.6 597.203 646.6C594.496 646.6 591.229 647.673 587.403 649.82C583.669 651.873 580.076 654.953 576.623 659.06C573.076 663.26 570.463 666.9 568.783 669.98C567.196 672.967 566.403 675.253 566.403 676.84C566.403 678.613 567.243 679.5 568.923 679.5ZM631.445 684.54C627.712 684.54 624.445 683.84 621.645 682.44C618.752 680.947 616.652 678.24 615.345 674.32C615.252 673.947 615.392 673.713 615.765 673.62C616.045 673.527 616.232 673.713 616.325 674.18C617.258 676.233 618.472 677.68 619.965 678.52C621.458 679.36 623.092 679.78 624.865 679.78C627.852 679.78 630.465 678.893 632.705 677.12C635.038 675.347 637.092 673.107 638.865 670.4C640.732 667.693 642.365 664.94 643.765 662.14C645.258 659.247 646.658 656.773 647.965 654.72C650.018 651.267 652.445 648.14 655.245 645.34C658.138 642.54 660.752 640.813 663.085 640.16C662.525 639.88 661.825 639.74 660.985 639.74C658.652 639.74 656.085 640.44 653.285 641.84C650.485 643.24 647.638 645.06 644.745 647.3C641.945 649.54 639.192 651.92 636.485 654.44C633.872 656.867 631.445 659.153 629.205 661.3C627.058 663.353 625.332 664.987 624.025 666.2C623.278 666.853 622.718 667.18 622.345 667.18C621.972 667.18 621.785 666.993 621.785 666.62C621.785 666.06 622.018 665.547 622.485 665.08C625.285 662.653 628.178 659.947 631.165 656.96C634.152 653.88 637.185 650.94 640.265 648.14C643.345 645.247 646.472 642.867 649.645 641C652.818 639.133 656.038 638.2 659.305 638.2C659.678 638.2 660.005 638.2 660.285 638.2C660.658 638.2 661.032 638.247 661.405 638.34C662.432 638.433 663.365 638.713 664.205 639.18C665.138 639.647 665.418 639.973 665.045 640.16C662.898 641.093 661.218 642.96 660.005 645.76C658.792 648.56 657.672 651.827 656.645 655.56C655.618 659.293 654.358 663.073 652.865 666.9C651.465 670.727 649.412 674.133 646.705 677.12C648.012 676.653 650.065 675.58 652.865 673.9C655.665 672.22 658.745 670.167 662.105 667.74C665.465 665.22 668.592 662.467 671.485 659.48C671.858 659.107 672.232 658.92 672.605 658.92C673.072 658.92 673.305 659.153 673.305 659.62C673.305 659.993 673.118 660.367 672.745 660.74C670.225 663.167 667.425 665.78 664.345 668.58C661.265 671.287 657.905 673.853 654.265 676.28C650.718 678.707 647.032 680.713 643.205 682.3C639.378 683.793 635.458 684.54 631.445 684.54ZM674.375 684.54C670.641 684.54 667.375 683.84 664.575 682.44C661.681 680.947 659.581 678.24 658.275 674.32C658.181 673.947 658.321 673.713 658.695 673.62C658.975 673.527 659.161 673.713 659.255 674.18C660.188 676.233 661.401 677.68 662.895 678.52C664.388 679.36 666.021 679.78 667.795 679.78C670.781 679.78 673.395 678.893 675.635 677.12C677.968 675.347 680.021 673.107 681.795 670.4C683.661 667.693 685.295 664.94 686.695 662.14C688.188 659.247 689.588 656.773 690.895 654.72C692.948 651.267 695.375 648.14 698.175 645.34C701.068 642.54 703.681 640.813 706.015 640.16C705.455 639.88 704.755 639.74 703.915 639.74C701.581 639.74 699.015 640.44 696.215 641.84C693.415 643.24 690.568 645.06 687.675 647.3C684.875 649.54 682.121 651.92 679.415 654.44C676.801 656.867 674.375 659.153 672.135 661.3C669.988 663.353 668.261 664.987 666.955 666.2C666.208 666.853 665.648 667.18 665.275 667.18C664.901 667.18 664.715 666.993 664.715 666.62C664.715 666.06 664.948 665.547 665.415 665.08C668.215 662.653 671.108 659.947 674.095 656.96C677.081 653.88 680.115 650.94 683.195 648.14C686.275 645.247 689.401 642.867 692.575 641C695.748 639.133 698.968 638.2 702.235 638.2C702.608 638.2 702.935 638.2 703.215 638.2C703.588 638.2 703.961 638.247 704.335 638.34C705.361 638.433 706.295 638.713 707.135 639.18C708.068 639.647 708.348 639.973 707.975 640.16C705.828 641.093 704.148 642.96 702.935 645.76C701.721 648.56 700.601 651.827 699.575 655.56C698.548 659.293 697.288 663.073 695.795 666.9C694.395 670.727 692.341 674.133 689.635 677.12C690.941 676.653 692.995 675.58 695.795 673.9C698.595 672.22 701.675 670.167 705.035 667.74C708.395 665.22 711.521 662.467 714.415 659.48C714.788 659.107 715.161 658.92 715.535 658.92C716.001 658.92 716.235 659.153 716.235 659.62C716.235 659.993 716.048 660.367 715.675 660.74C713.155 663.167 710.355 665.78 707.275 668.58C704.195 671.287 700.835 673.853 697.195 676.28C693.648 678.707 689.961 680.713 686.135 682.3C682.308 683.793 678.388 684.54 674.375 684.54ZM717.024 683.14C714.131 683.14 711.891 682.253 710.304 680.48C708.718 678.613 707.924 676.233 707.924 673.34C707.924 670.633 708.624 667.647 710.024 664.38C711.518 661.113 713.851 657.8 717.024 654.44C720.291 650.893 724.351 648.047 729.204 645.9C734.058 643.66 738.678 642.54 743.064 642.54C746.611 642.54 749.644 643.333 752.164 644.92C754.684 646.413 756.364 648.327 757.204 650.66C758.231 650.66 759.491 650.94 760.984 651.5C762.571 652.06 763.364 653.087 763.364 654.58C763.364 655.607 762.851 656.773 761.824 658.08C761.171 659.013 760.004 660.413 758.324 662.28C756.738 664.147 755.244 666.153 753.844 668.3C752.724 669.98 751.838 671.567 751.184 673.06C750.531 674.46 750.204 675.673 750.204 676.7C750.204 678.1 750.904 678.8 752.304 678.8C753.891 678.8 756.271 677.913 759.444 676.14C762.898 674.18 766.211 671.94 769.384 669.42C772.558 666.9 775.031 664.893 776.804 663.4C777.271 663.027 777.598 662.84 777.784 662.84C778.158 662.84 778.344 663.073 778.344 663.54C778.344 664.1 778.111 664.613 777.644 665.08C776.804 665.827 775.171 667.227 772.744 669.28C770.318 671.333 767.518 673.48 764.344 675.72C761.264 677.96 758.231 679.78 755.244 681.18C753.751 681.833 752.351 682.347 751.044 682.72C749.831 683 748.711 683.14 747.684 683.14C745.164 683.14 743.251 682.44 741.944 681.04C740.638 679.547 739.984 677.633 739.984 675.3C739.984 674.367 740.124 673.387 740.404 672.36C740.684 671.333 741.011 670.307 741.384 669.28L742.364 666.9C739.938 669.887 737.511 672.407 735.084 674.46C732.658 676.42 730.231 678.147 727.804 679.64C725.751 680.853 723.791 681.74 721.924 682.3C720.151 682.86 718.518 683.14 717.024 683.14ZM721.364 679.5C723.044 679.5 725.471 678.52 728.644 676.56C731.818 674.507 735.504 671.38 739.704 667.18C740.264 666.62 741.291 665.64 742.784 664.24C744.371 662.747 746.051 661.113 747.824 659.34C749.598 657.473 751.091 655.653 752.304 653.88C753.611 652.013 754.264 650.473 754.264 649.26C754.264 647.487 752.724 646.6 749.644 646.6C746.938 646.6 743.671 647.673 739.844 649.82C736.111 651.873 732.518 654.953 729.064 659.06C725.518 663.26 722.904 666.9 721.224 669.98C719.638 672.967 718.844 675.253 718.844 676.84C718.844 678.613 719.684 679.5 721.364 679.5ZM763.446 720.38C757.753 720.38 753.04 719.727 749.306 718.42C745.573 717.113 742.586 715.34 740.346 713.1C738.853 711.513 737.453 709.413 736.146 706.8C734.84 704.28 734.186 702.133 734.186 700.36C734.186 699.707 734.326 699.38 734.606 699.38C735.26 699.38 735.68 699.753 735.866 700.5C735.866 700.78 736.193 701.853 736.846 703.72C737.406 705.587 738.48 707.64 740.066 709.88C741.653 712.12 743.986 714.08 747.066 715.76C750.146 717.44 754.16 718.28 759.106 718.28C764.986 718.28 770.26 716.88 774.926 714.08C779.593 711.373 783.746 707.78 787.386 703.3C791.12 698.913 794.526 694.107 797.606 688.88C800.686 683.653 803.626 678.52 806.426 673.48C809.226 668.44 812.073 664.007 814.966 660.18C813.753 661.487 812.213 663.12 810.346 665.08C808.573 666.947 806.66 668.86 804.606 670.82C802.553 672.78 800.593 674.553 798.726 676.14C796.86 677.727 795.32 678.893 794.106 679.64C792.053 680.853 790.093 681.74 788.226 682.3C786.453 682.86 784.82 683.14 783.326 683.14C780.433 683.14 778.193 682.253 776.606 680.48C775.02 678.613 774.226 676.233 774.226 673.34C774.226 670.633 774.926 667.647 776.326 664.38C777.82 661.113 780.153 657.8 783.326 654.44C786.593 650.893 790.653 648.047 795.506 645.9C800.36 643.66 804.98 642.54 809.366 642.54C810.953 642.54 812.493 642.727 813.986 643.1C815.48 643.38 816.833 643.893 818.046 644.64C819.726 645.667 820.94 646.647 821.686 647.58C822.526 648.42 823.133 649.447 823.506 650.66C824.066 650.66 824.953 650.94 826.166 651.5C827.38 651.967 828.5 652.573 829.526 653.32C830.553 653.973 831.066 654.673 831.066 655.42C831.066 655.793 830.693 656.213 829.946 656.68C828.08 657.613 825.98 659.853 823.646 663.4C821.313 666.853 818.7 671.007 815.806 675.86C813.006 680.62 809.833 685.567 806.286 690.7C802.833 695.927 798.96 700.78 794.666 705.26C790.373 709.74 785.613 713.38 780.386 716.18C775.253 718.98 769.606 720.38 763.446 720.38ZM787.246 679.5C789.113 679.5 791.4 678.567 794.106 676.7C796.16 675.3 798.4 673.573 800.826 671.52C803.253 669.373 805.633 667.133 807.966 664.8C810.3 662.467 812.306 660.32 813.986 658.36C817.066 654.813 818.606 651.92 818.606 649.68C818.606 647.813 817.486 646.88 815.246 646.88C813.006 646.88 809.926 647.953 806.006 650.1C803.766 651.313 801.386 653.04 798.866 655.28C796.346 657.52 793.966 659.947 791.726 662.56C789.58 665.173 787.853 667.6 786.546 669.84C785.053 672.547 784.306 674.74 784.306 676.42C784.306 678.473 785.286 679.5 787.246 679.5ZM846.635 684.4C842.528 684.4 839.075 683.42 836.275 681.46C833.568 679.407 832.215 676.467 832.215 672.64C832.215 668.533 833.195 664.707 835.155 661.16C837.115 657.613 839.728 654.533 842.995 651.92C846.261 649.213 849.808 647.113 853.635 645.62C857.555 644.127 861.428 643.38 865.255 643.38C869.081 643.38 871.928 644.08 873.795 645.48C875.661 646.787 876.595 648.42 876.595 650.38C876.595 652.247 875.708 654.253 873.935 656.4C872.255 658.453 869.781 660.273 866.515 661.86C864.461 662.793 862.081 663.633 859.375 664.38C856.761 665.033 854.475 665.36 852.515 665.36C851.021 665.36 850.275 665.127 850.275 664.66C850.275 664.287 850.928 664.1 852.235 664.1C853.448 664.1 855.315 663.773 857.835 663.12C860.448 662.373 862.968 661.393 865.395 660.18C868.101 658.687 870.015 657.193 871.135 655.7C872.255 654.207 872.815 652.853 872.815 651.64C872.815 650.52 872.348 649.587 871.415 648.84C870.575 648.093 869.361 647.72 867.775 647.72C866.281 647.72 864.601 648.14 862.735 648.98C860.028 650.193 857.228 652.2 854.335 655C851.535 657.707 849.201 660.693 847.335 663.96C845.468 667.227 844.535 670.353 844.535 673.34C844.535 675.393 845.095 677.12 846.215 678.52C847.428 679.92 849.201 680.62 851.535 680.62C853.961 680.62 856.761 679.873 859.935 678.38C863.108 676.793 866.328 674.88 869.595 672.64C872.861 670.307 875.895 667.973 878.695 665.64C881.495 663.307 883.735 661.347 885.415 659.76C885.975 659.2 886.395 658.92 886.675 658.92C886.955 658.92 887.095 659.153 887.095 659.62C887.095 660.273 886.815 660.833 886.255 661.3C882.708 664.567 878.835 667.973 874.635 671.52C870.528 675.067 866.095 678.1 861.335 680.62C856.668 683.047 851.768 684.307 846.635 684.4Z" fill="white"/>
<path d="M579.764 105.928C579.828 106.051 579.842 106.192 579.805 106.325C579.769 106.458 579.683 106.572 579.566 106.644C579.449 106.716 579.309 106.742 579.174 106.715C579.039 106.688 578.919 106.611 578.838 106.5C572.357 98.7604 565.471 91.0123 558.178 83.2558C541.413 65.4479 525.677 47.8814 510.969 31.4962C509.141 29.4639 507.339 27.7958 505.563 26.4917C505.3 26.2942 504.969 26.2089 504.641 26.254C504.314 26.2991 504.016 26.4711 503.811 26.7331C497.94 34.2017 492.309 42.2927 486.92 51.0061C480.237 61.8195 473.126 72.3831 465.587 82.6969C449.28 105.014 436.704 128.817 433.176 156.519C431.196 172.075 431.539 187.435 434.204 202.601C435.384 209.359 438.303 219.393 441.678 226.938C446.577 237.899 449.534 245.228 455.701 253.497C465.202 266.284 474.543 279.1 483.722 291.945C483.84 292.112 483.891 292.317 483.865 292.521C483.839 292.725 483.738 292.914 483.583 293.05L483.545 293.076C483.361 293.233 483.125 293.314 482.882 293.302C482.639 293.29 482.409 293.187 482.237 293.012C461.416 271.766 449.009 258.667 445.016 253.713C438.578 245.736 433.442 237.582 429.61 229.249C425.485 220.307 421.513 210.654 419.191 199.248C414.884 178.036 414.884 157.252 419.191 136.895C423.061 118.579 430.396 102.804 440.562 87.5109C448.091 76.1894 455.291 65.9264 462.161 56.7219C480.765 31.7884 488.976 22.1477 498.925 5.88951C500.22 3.78103 501.595 1.90964 503.05 0.275349C503.131 0.183674 503.231 0.1114 503.344 0.0639039C503.456 0.0164076 503.578 -0.00508861 503.7 0.00101431C503.822 0.00711724 503.941 0.0406622 504.048 0.0991539C504.155 0.157646 504.248 0.239579 504.319 0.338858C513.566 13.3116 525.292 28.8415 539.497 46.9288C549.916 60.2148 561.515 75.7871 570.285 88.9461C574.202 94.8313 577.362 100.492 579.764 105.928Z" fill="#9D8854"/>
<path d="M545.384 139.295C545.412 139.401 545.403 139.514 545.359 139.615C545.315 139.716 545.237 139.799 545.14 139.849C545.043 139.9 544.932 139.915 544.824 139.893C544.717 139.871 544.621 139.812 544.551 139.727C537.663 131.178 532.768 124.614 524.794 117.019C520.597 113.016 515.576 107.872 509.731 101.588C509.548 101.393 509.324 101.242 509.075 101.147C508.826 101.052 508.559 101.015 508.294 101.04C508.029 101.064 507.773 101.149 507.545 101.288C507.318 101.427 507.124 101.617 506.98 101.842C498.515 115.022 491.853 123.902 486.908 135.173C474.435 163.61 474.973 192.077 488.523 220.574C491.652 227.138 496.446 234.593 500.054 241.068C500.273 241.45 500.31 241.806 500.167 242.137C500.148 242.187 500.117 242.231 500.077 242.267C500.037 242.302 499.989 242.328 499.938 242.341C499.886 242.355 499.832 242.356 499.78 242.345C499.728 242.334 499.679 242.31 499.638 242.277C486.012 231.476 475.339 219.454 468.665 203.183C460.061 182.184 459.102 160.752 465.788 138.888C468.572 129.796 473.589 120.123 480.839 109.87C487.434 100.549 495.525 89.8415 505.113 77.7475C505.677 77.035 506.316 76.4074 507.031 75.8646C507.099 75.8135 507.176 75.7763 507.258 75.755C507.34 75.7337 507.425 75.7288 507.509 75.7407C507.592 75.7525 507.672 75.7808 507.743 75.8239C507.815 75.867 507.877 75.9241 507.926 75.9919C517.018 88.2471 525.404 100.286 533.083 112.109C539.265 121.624 542.772 129.245 545.384 139.295Z" fill="#C4AA69"/>
<path d="M512.085 308.307C511.994 308.383 511.882 308.432 511.765 308.446C511.647 308.46 511.527 308.44 511.419 308.388C511.31 308.336 511.218 308.255 511.153 308.152C511.087 308.049 511.051 307.93 511.048 307.808C510.828 291.029 511.09 272.43 511.832 252.012C512.423 235.812 513.793 223.264 515.944 214.367C523.426 183.45 539.706 157.769 564.784 137.326C574.122 129.724 584.261 123.286 595.201 118.011C601.941 114.764 610.532 111.956 620.975 109.587C655.302 101.803 687.718 98.2873 723.538 92.5862C726.381 92.1345 729.093 92.1516 731.674 92.6373C731.874 92.675 732.06 92.7706 732.21 92.9132C732.36 93.0557 732.468 93.2393 732.522 93.4426C732.766 94.4482 732.711 96.144 732.357 98.5301C729.637 117.103 726.018 147.04 722.501 169.666C721.235 177.821 719.649 188.401 717.743 201.405C717.524 202.914 716.912 204.234 715.908 205.368C715.833 205.447 715.736 205.502 715.63 205.525C715.523 205.547 715.413 205.538 715.312 205.496C715.211 205.455 715.125 205.384 715.064 205.293C715.004 205.202 714.972 205.094 714.972 204.984L717.844 110.38C717.851 110.198 717.817 110.017 717.745 109.849C717.673 109.682 717.564 109.533 717.427 109.413C717.291 109.294 717.129 109.206 716.953 109.156C716.778 109.106 716.594 109.097 716.415 109.127C690.337 113.767 664.412 119.059 638.347 123.789C616.078 127.815 594.024 136.354 576.184 150.428C569.293 155.856 562.11 162.759 554.636 171.136C547.171 179.513 541.385 187.621 537.277 195.461C533.346 202.96 529.829 211.751 526.724 221.832C525.257 226.613 523.62 235.931 521.815 249.788C519.782 265.349 516.965 284.148 513.363 306.185C513.225 307.015 512.782 307.763 512.123 308.281L512.085 308.307Z" fill="#9D8854"/>
<path d="M405.685 121.704C395.228 120.494 385.177 119.804 375.533 119.635C366.726 119.482 358.49 119.233 350.825 118.886C325.986 117.769 309.797 116.995 302.259 116.563C299.907 116.428 297.564 116.466 295.229 116.677C295.049 116.693 294.875 116.747 294.718 116.835C294.561 116.923 294.424 117.044 294.317 117.19C294.21 117.335 294.135 117.501 294.098 117.678C294.06 117.854 294.061 118.037 294.1 118.213C300.305 147.306 305.153 175.828 310.407 202.052C313.901 219.552 320.051 235.178 328.858 248.929C345.901 275.585 370.406 296.325 400.774 306.67C407.855 309.074 417.753 311.202 430.469 313.055C452.448 316.267 460.646 317.168 473.971 319.44C478.294 320.176 482.765 320.718 487.385 321.065C488.772 321.175 490.1 321.602 491.369 322.347C491.494 322.416 491.592 322.525 491.647 322.657C491.702 322.788 491.712 322.935 491.674 323.073C491.636 323.212 491.554 323.336 491.439 323.425C491.324 323.513 491.184 323.563 491.039 323.565C465.769 323.743 441.239 323.18 417.449 321.877C412.449 321.606 403.79 319.872 391.472 316.673C380.406 313.804 369.581 308.972 358.997 302.177C337.306 288.265 320.296 270.393 307.97 248.561C303.825 241.215 300.136 232.482 296.904 222.362C294.671 215.38 293.808 208.958 292.348 201.9C290.026 190.806 288.668 178.989 287.095 169.748C283.389 148.03 280.788 125.766 277.069 105.482C276.875 104.416 276.832 103.146 276.942 101.674C276.955 101.505 277.001 101.341 277.08 101.191C277.158 101.042 277.266 100.909 277.398 100.802C277.53 100.696 277.682 100.616 277.846 100.57C278.01 100.523 278.182 100.51 278.351 100.531C292.505 102.351 306.43 104.043 320.127 105.609C327.843 106.489 338.972 108.004 353.515 110.153C367.365 112.209 378.452 113.893 386.776 115.205C391.43 115.95 397.753 118.031 405.748 121.45C405.776 121.466 405.798 121.491 405.812 121.52C405.825 121.55 405.828 121.583 405.82 121.614C405.813 121.644 405.795 121.669 405.77 121.686C405.746 121.702 405.715 121.709 405.685 121.704Z" fill="#9D8854"/>
<path d="M665.353 168.379C665.347 168.231 665.311 168.085 665.247 167.951C665.183 167.817 665.092 167.698 664.981 167.601C664.87 167.504 664.74 167.431 664.6 167.386C664.459 167.342 664.312 167.328 664.166 167.343C654.406 168.469 645.088 169.961 636.212 171.819C618.199 175.591 600.262 184.542 586.759 197.738C582.3 202.086 576.729 208.313 574.961 208.85C574.873 208.876 574.779 208.877 574.69 208.852C574.602 208.828 574.521 208.78 574.457 208.713C574.394 208.646 574.349 208.562 574.329 208.472C574.309 208.381 574.313 208.286 574.342 208.198C579.378 192.947 588.073 180.484 600.426 170.809C609.858 163.418 620.127 158.132 631.235 154.953C635.479 153.734 643.252 152.169 654.553 150.26C666.014 148.333 673.825 147.029 677.985 146.347C679.248 146.142 680.966 146.015 683.138 145.963C683.312 145.958 683.486 145.989 683.648 146.053C683.81 146.118 683.958 146.215 684.083 146.339C684.208 146.463 684.307 146.611 684.375 146.775C684.442 146.939 684.477 147.115 684.477 147.293C684.452 153.546 682.696 162.894 680.549 177.65C678.086 194.58 674.561 208.774 666.401 222.571C665.416 224.242 664.22 225.746 662.814 227.085C662.737 227.152 662.642 227.194 662.541 227.204C662.44 227.214 662.338 227.193 662.25 227.143C662.161 227.092 662.09 227.015 662.047 226.923C662.003 226.83 661.989 226.726 662.006 226.624C665.795 207.52 666.06 187.138 665.353 168.379Z" fill="#C4AA69"/>
<path d="M404.386 169.079C396.795 168.148 387.113 166.632 378.281 166.823C369.824 167.002 360.941 166.963 351.631 166.708C351.476 166.705 351.323 166.735 351.181 166.798C351.039 166.86 350.913 166.953 350.81 167.069C350.708 167.185 350.632 167.323 350.587 167.472C350.543 167.621 350.531 167.778 350.554 167.932C351.855 177.336 353.844 186.898 356.522 196.616C365.95 230.767 386.898 253.454 419.364 264.676C428.058 267.684 439.235 269.047 446.838 271.392C448.849 272.012 450.412 272.683 451.527 273.405C451.616 273.464 451.685 273.55 451.724 273.65C451.764 273.75 451.771 273.859 451.747 273.964C451.722 274.068 451.665 274.163 451.585 274.234C451.505 274.305 451.405 274.349 451.299 274.361C439.623 275.712 428.037 275.75 416.539 274.476C406.654 273.388 396.554 269.956 386.239 264.179C363.42 251.403 348.196 232.424 340.568 207.244C338.498 200.414 336.952 192.645 335.93 183.937C334.755 173.921 333.437 163.31 331.976 152.105C331.944 151.859 331.963 151.609 332.034 151.372C332.104 151.134 332.223 150.914 332.383 150.725C332.543 150.536 332.74 150.384 332.963 150.277C333.185 150.17 333.427 150.111 333.674 150.104C335.102 150.062 336.656 150.177 338.337 150.448C346.372 151.765 357.823 153.774 372.692 156.476C382.593 158.277 390.362 160.456 395.997 163.013C399.224 164.474 402.134 166.216 404.728 168.238C404.809 168.301 404.867 168.389 404.894 168.488C404.92 168.588 404.914 168.694 404.875 168.789C404.836 168.884 404.767 168.964 404.679 169.017C404.59 169.069 404.488 169.091 404.386 169.079Z" fill="#C4AA69"/>
<path d="M563.186 379.681L563.198 379.668C563.277 379.542 563.401 379.45 563.544 379.409C563.688 379.369 563.841 379.384 563.974 379.452C566.119 380.514 570.48 383.158 577.058 387.383C581.838 390.452 589.06 394.184 598.724 398.578C605.318 401.579 613.036 403.964 621.877 405.732C658.522 413.051 696.247 407.746 727.309 386.414C734.641 381.381 740.698 376.825 745.478 372.745C770.255 351.637 790.112 334.487 805.048 321.294C805.307 321.065 805.467 320.743 805.493 320.398C805.519 320.052 805.41 319.71 805.187 319.445C804.289 318.365 803.467 317.566 802.721 317.048C781.843 302.316 761.508 287.745 741.715 273.337C721.88 258.902 699.858 250.142 675.649 247.057C670.147 246.359 663.641 246.1 656.131 246.279C640.937 246.649 627.93 248.179 614.388 253.394C597.884 259.757 586.581 266.298 572.645 277.188C558.939 287.886 553.243 292.604 542.054 300.586C538.163 303.366 534.175 306.328 530.089 309.473C529.419 309.992 528.678 310.294 527.864 310.379C527.799 310.385 527.734 310.373 527.677 310.342C527.619 310.312 527.572 310.265 527.541 310.208C527.509 310.151 527.496 310.086 527.501 310.021C527.507 309.956 527.531 309.894 527.571 309.843C528.826 308.22 529.652 307.225 530.051 306.859C559.897 279.325 574.849 265.529 574.909 265.469C583.699 257.547 593.222 251.162 603.479 246.317C617.58 239.648 630.829 234.726 645.273 233.158C654.046 232.206 658.729 231.666 659.323 231.538C660.124 231.361 660.946 231.301 661.764 231.36C663.883 231.496 671.402 231.968 684.32 232.775C700.366 233.783 718.828 240.604 733.997 248.421C739.413 251.218 747.055 256.063 756.922 262.957C766.339 269.545 792.523 287.869 835.474 317.927C835.606 318.019 835.717 318.138 835.798 318.277C835.879 318.416 835.929 318.571 835.945 318.731C835.961 318.891 835.942 319.052 835.889 319.204C835.836 319.356 835.751 319.495 835.639 319.611C834.775 320.52 834.054 321.217 833.478 321.702C817.211 335.243 803.573 346.664 792.562 355.964C780.648 366.038 766.814 376.608 754.773 386.567C729.076 407.81 696.297 420.102 662.705 419.988C634.944 419.894 609.858 412.813 587.446 398.744C579.753 393.899 571.298 386.529 563.3 380.293C563.21 380.223 563.149 380.121 563.128 380.009C563.107 379.896 563.127 379.78 563.186 379.681Z" fill="#9D8854"/>
<path d="M295.878 252.011C295.922 252.015 295.964 252.033 295.998 252.062C296.032 252.091 296.057 252.129 296.068 252.173C296.079 252.216 296.076 252.261 296.061 252.303C296.045 252.345 296.017 252.38 295.98 252.405C288.911 257.144 282.195 262.505 275.831 268.489C258.784 284.493 238.411 303.234 214.711 324.713C213.54 325.772 212.408 326.908 211.313 328.12C211.181 328.266 211.081 328.438 211.018 328.625C210.956 328.811 210.933 329.009 210.951 329.205C210.969 329.4 211.027 329.591 211.123 329.763C211.218 329.935 211.348 330.086 211.504 330.205C214.851 332.799 219.421 335.367 222.959 337.859C249.187 356.38 271.402 371.481 289.603 383.161C291.41 384.314 296.391 386.819 304.546 390.676C321.423 398.647 339.548 401.483 359.518 401.902C390.103 402.538 418.041 392.341 442.25 374.426C469.369 354.354 485.457 342.526 490.514 338.94C493.331 336.94 495.372 335.63 496.636 335.011C496.714 334.968 496.804 334.953 496.891 334.969C496.978 334.985 497.057 335.031 497.114 335.098C497.172 335.166 497.203 335.251 497.204 335.34C497.206 335.428 497.176 335.515 497.12 335.584C496.153 336.872 495.415 337.758 494.905 338.241C490.311 342.513 485.958 347.51 481.541 351.172C477.481 354.554 474.184 358.495 470.289 362.119C454.923 376.435 446.348 384.356 444.566 385.882C423.183 404.293 397.689 415.176 369.7 417.872C341.155 420.627 314.083 415.676 288.483 403.021C281.431 399.529 272.055 393.515 260.354 384.979C238.504 369.035 216.862 353.079 195.428 337.109C194.673 336.55 191.635 334.52 186.315 331.019C186.223 330.957 186.146 330.874 186.091 330.777C186.037 330.68 186.006 330.571 186.001 330.46C185.996 330.349 186.017 330.238 186.063 330.136C186.109 330.034 186.178 329.945 186.264 329.875C215.089 306.845 243.88 285.103 272.636 264.649C279.874 259.504 287.261 255.342 294.796 252.164C295.152 252.011 295.513 251.96 295.878 252.011Z" fill="#9D8854"/>
<path d="M542.648 356.723C542.597 356.203 543.156 355.319 544.325 354.073C552.886 344.932 563.062 334.011 572.538 325.894C578.788 320.529 584.136 314.883 590.539 309.941C614.065 291.799 639.357 276.973 669.425 276.781C684.736 276.687 699.167 280.353 712.717 287.779C716.511 289.853 724.446 295.222 736.523 303.885C745.576 310.38 753.333 316.061 759.795 320.926C759.909 321.013 760.005 321.123 760.076 321.249C760.146 321.375 760.191 321.514 760.206 321.658C760.222 321.802 760.208 321.948 760.165 322.086C760.123 322.224 760.053 322.352 759.96 322.462C759.13 323.452 758.338 324.238 757.585 324.818C749.709 330.912 738.382 339.973 723.604 351.999C716.249 357.978 706.099 363.778 696.597 367.222C668.879 377.272 635.724 374.878 611.041 357.811C610.406 357.376 610.004 356.958 609.835 356.557C609.788 356.444 609.774 356.321 609.795 356.201C609.815 356.081 609.87 355.969 609.951 355.879C610.032 355.789 610.138 355.724 610.254 355.692C610.371 355.661 610.494 355.663 610.609 355.699C616.758 357.747 622.03 359.95 628.305 361.358C656.468 367.708 688.073 361.23 710.443 342.243C716.143 337.412 722.935 331.339 730.819 324.024C730.928 323.924 731.013 323.8 731.07 323.663C731.126 323.525 731.153 323.377 731.147 323.228C731.141 323.08 731.102 322.934 731.035 322.802C730.967 322.67 730.872 322.554 730.756 322.462C708.246 304.948 684.58 289.84 654.727 295.089C627.53 299.865 603.801 315.254 581.291 330.541C570.175 338.082 558.171 347.505 548.402 354.035C546.251 355.477 544.604 356.518 543.461 357.159C543.381 357.204 543.291 357.228 543.199 357.23C543.107 357.231 543.017 357.209 542.936 357.165C542.855 357.122 542.786 357.059 542.736 356.981C542.685 356.904 542.655 356.815 542.648 356.723Z" fill="#C4AA69"/>
<path d="M323.689 289.193C323.73 289.199 323.769 289.218 323.8 289.246C323.831 289.274 323.853 289.311 323.864 289.351C323.875 289.392 323.874 289.434 323.861 289.474C323.848 289.514 323.824 289.549 323.791 289.576C317.22 294.069 308.647 300.846 302.497 307.42C300.336 309.734 294.676 315.465 285.515 324.612C285.325 324.802 285.179 325.032 285.089 325.286C284.998 325.539 284.965 325.809 284.992 326.077C285.019 326.344 285.105 326.603 285.244 326.833C285.383 327.063 285.572 327.259 285.796 327.408C294.395 333.049 305.061 341.014 315.779 346.03C324.506 350.114 331.957 353.28 340.875 354.748C363.704 358.517 385.245 355.403 405.497 345.405C407.666 344.332 412.302 341.495 419.404 336.891C424.822 333.385 429.462 330.552 433.324 328.39C433.396 328.346 433.481 328.329 433.563 328.343C433.646 328.356 433.721 328.399 433.776 328.465C433.831 328.53 433.861 328.613 433.863 328.7C433.864 328.787 433.836 328.872 433.783 328.939C424.648 340.554 413.943 353.076 401.21 360.287C387.635 367.98 373.801 372.217 359.707 373C339.931 374.098 321.58 369.928 304.653 360.491C299.269 357.496 291.877 352.199 282.479 344.6C276.252 339.58 269.018 334.049 260.776 328.008C260.647 327.913 260.542 327.789 260.47 327.646C260.397 327.503 260.359 327.345 260.359 327.184C260.359 327.024 260.397 326.866 260.47 326.723C260.542 326.58 260.647 326.456 260.776 326.361C268.908 320.498 280.973 312.04 296.972 300.987C303.973 296.153 311.977 292.337 320.984 289.537C321.945 289.24 322.847 289.125 323.689 289.193Z" fill="#C4AA69"/>
</svg>
