<svg xmlns="http://www.w3.org/2000/svg" version="1.1" xmlns:xlink="http://www.w3.org/1999/xlink" width="512" height="512" x="0" y="0" viewBox="0 0 512 512" style="enable-background:new 0 0 512 512" xml:space="preserve" class=""><g><path d="M421.555 164.254c-.961 0-1.93.031-2.895.047 24.317-83.055-19.695-143.766-21.258-148.371-5.89 2.636-48.87 10.972-87.316 51.715C288.05 20.695 261.02 5.082 256 0c-4.82 4.879-32.195 20.996-54.086 67.645-38.562-40.86-81.473-49.098-87.32-51.715-1.672 4.933-45.645 65.066-21.258 148.37-.965-.015-1.93-.046-2.895-.046-50.949 0-84.87 21.66-90.441 23.75 2.148 3.969 16.055 85.062 103.492 123.02 47.828 20.761 103.36 20.156 152.465-5.532 49.063 25.645 104.621 26.336 152.547 5.531C495.89 273.09 509.883 191.922 512 188.003c-5.684-2.132-39.363-23.75-90.445-23.75zM382.867 52.785c16.403 36.73 17.438 78.387 2.535 116.153-15 38.015-43.539 66.855-80.113 82.558C321.945 223.836 331 191.91 331 158.734c0-19.113-3.082-39.433-8.82-59.07 15.73-20.488 36.793-36.754 60.687-46.879zM256 39.961c26.93 28.305 45 75.09 45 118.773 0 39.602-15.473 77.075-42.902 105.016-.703.078-1.399.172-2.106.238-.703-.066-1.39-.16-2.09-.234-27.43-27.942-42.906-65.418-42.906-105.02C211 115.051 229.07 68.266 256 39.961zM129.129 52.785c23.894 10.125 44.96 26.39 60.691 46.88-5.738 19.636-8.82 39.956-8.82 59.07 0 33.19 9.063 65.132 25.734 92.804-36.574-15.687-65.12-44.543-80.136-82.601-14.907-37.766-13.871-79.422 2.53-116.153zm-13.691 230.719c-36.06-15.652-64.094-44.2-78.536-79.453 16.88-6.363 35.465-9.797 53.54-9.797 5.003 0 10.038.27 15.027.785 11.902 23.613 28.8 44.36 49.535 60.61 19.426 15.222 41.398 26.081 65.605 32.46-34.785 11.805-72.265 9.68-105.172-4.605zm281.12 0c-32.636 14.168-70.156 16.508-105.25 4.601 24.243-6.386 46.235-17.25 65.676-32.476 20.743-16.246 37.641-36.984 49.54-60.59 5.019-.516 10.054-.785 15.03-.785 18.079 0 36.66 3.434 53.544 9.793-14.442 35.258-42.48 63.805-78.54 79.457zm0 0" fill="#c4aa69" opacity="1" data-original="#000000" class=""></path></g></svg>