<svg xmlns="http://www.w3.org/2000/svg" version="1.1" xmlns:xlink="http://www.w3.org/1999/xlink" width="512" height="512" x="0" y="0" viewBox="0 0 460 460" style="enable-background:new 0 0 512 512" xml:space="preserve" class=""><g><path fill="#1a1a1a" d="M230 2.22C104.2 2.22 2.22 104.2 2.22 230.001 2.22 355.8 104.2 457.78 230 457.78S457.78 355.8 457.78 230.001C457.78 104.2 355.8 2.22 230 2.22zm0 409.293c-100.246 0-181.513-81.266-181.513-181.512 0-100.248 81.267-181.514 181.513-181.514s181.513 81.266 181.513 181.514c0 100.246-81.267 181.512-181.513 181.512z" opacity="1" data-original="#474747" class=""></path><path fill="#1a1a1a" d="M319.047 300.083c-4.704-8.066-15.056-10.789-23.121-6.086-.183.107-19.19 10.496-49.979 3.475-12.711-2.898-25.508-3.621-37.252-3.188 5.259-9.051 8.659-18.319 10.172-27.69.922-5.711 1.152-11.094.695-17.094h38.021c2.457 0 3.917-1.917 3.917-4.374v-22.244c0-2.457-1.46-4.382-3.917-4.382H209.89a105.34 105.34 0 0 0-7.674-11.976c-8.93-12.061-14.205-33.754-7.156-47.745 4.85-9.627 15.7-14.517 32.248-14.517 14.776 0 25.225 3.569 31.053 10.614 7.938 9.594 7.072 25.351 6.068 30.615l.021-.108 33.125 6.777c.715-3.496 6.43-34.833-12.922-58.546-12.547-15.375-31.841-23.17-57.346-23.17-39.817 0-56.214 20.776-62.443 33.14-11.985 23.789-6.928 53.917 4.908 74.917h-32.309c-2.457 0-4.964 1.925-4.964 4.382v22.244c0 2.457 2.507 4.374 4.964 4.374h48.077c2.259 15-4.022 33.701-32.229 56.227-6.422 5.129-8.225 14.152-4.273 21.357a16.918 16.918 0 0 0 14.826 8.79 16.942 16.942 0 0 0 5.463-.906c.355-.121 36.532-11.962 69.101-4.532 44.156 10.07 73.314-6.521 74.534-7.232 8.064-4.707 10.789-15.058 6.085-23.122z" opacity="1" data-original="#474747" class=""></path></g></svg>