<svg xmlns="http://www.w3.org/2000/svg" version="1.1" xmlns:xlink="http://www.w3.org/1999/xlink" width="512" height="512" x="0" y="0" viewBox="0 0 512 512" style="enable-background:new 0 0 512 512" xml:space="preserve" class=""><g><path d="M298.466 72.635c3.095-6.663 4.71-13.929 4.71-21.473C303.175 22.951 280.225 0 252.013 0S200.85 22.951 200.85 51.162c0 7.543 1.615 14.808 4.713 21.472-25.91 17.347-43.253 48.74-43.253 84.513 0 54.49 40.241 98.821 89.704 98.821 49.462 0 89.703-44.331 89.703-98.821-.001-35.772-17.343-67.165-43.251-84.512zm-46.452-42.631c11.667 0 21.159 9.491 21.159 21.159 0 3.319-.765 6.5-2.205 9.39a81.78 81.78 0 0 0-37.903-.001 20.905 20.905 0 0 1-2.209-9.389c-.002-11.668 9.491-21.159 21.158-21.159zm-.001 58.325c12.179 0 23.512 4.235 32.965 11.48-3.945 5.493-10.087 12.881-18.872 20.445-19.866 17.107-44.616 28.198-73.699 33.116 1.707-36.195 27.787-65.041 59.606-65.041zm0 137.635c-24.96 0-46.38-17.756-55.284-42.88 58.083-9.644 91.117-38.882 107.566-59.115 4.722 9.846 7.418 21.155 7.418 33.179.001 37.944-26.781 68.816-59.7 68.816zM326.887 266.097H185.112c-42.562 0-77.19 34.178-77.19 76.188V512h296.156V342.285c-.001-42.01-34.628-76.188-77.191-76.188zM176.981 481.996h-39.057V342.285h.001c0-25.466 21.168-46.185 47.186-46.185h87.345c-10.136 21.856-29.553 53.49-65.471 84.639v-20.762h-30.004v122.019zm129.341 0h-51.564c19.857-16.433 37.155-36.118 51.564-58.634v58.634zm-.853-123.991c-20.22 54.107-53.346 94.729-98.484 120.817V419.21h.001c60.558-45.175 87.111-94.919 98.085-123.109h16.126c-1.987 14.21-6.336 36.772-15.728 61.904zm30.857 123.991V360.825c8.05-23.346 12.195-44.048 14.306-58.426 14.007 8.019 23.442 22.89 23.442 39.886v139.711h-37.748z" fill="#1a1a1a" opacity="1" data-original="#000000" class=""></path></g></svg>